
<svg xmlns="http://www.w3.org/2000/svg" >


<symbol id="info-icon" width="24px" height="24px" viewBox="0 0 24 24">

<defs>
    <style>
      .cls-1 {
        fill: #aaadbb;
        fill-rule: evenodd;
        filter: url(#filter);
      }
    </style>
  </defs>
  <path id="tooltip" class="cls-1" fill="#aaadbb" d="M362.4,197h-3.62l-3.79,3.79h0a1.4,1.4,0,0,1-1.98,0h0L349.22,197H345.6a2.8,2.8,0,0,1-2.8-2.8V181.6a2.8,2.8,0,0,1,2.8-2.8h16.8a2.8,2.8,0,0,1,2.8,2.8v12.6A2.8,2.8,0,0,1,362.4,197Zm0-14a1.4,1.4,0,0,0-1.4-1.4H347a1.4,1.4,0,0,0-1.4,1.4v9.8a1.4,1.4,0,0,0,1.4,1.4h2.8a1.4,1.4,0,0,1,.99.41h0l3.21,3.209,3.21-3.209h0a1.392,1.392,0,0,1,.99-0.41H361a1.4,1.4,0,0,0,1.4-1.4V183Zm-4.2,8.4h-8.4a1.4,1.4,0,0,1,0-2.8h8.4A1.4,1.4,0,1,1,358.2,191.4Zm0-4.2h-8.4a1.4,1.4,0,0,1,0-2.8h8.4A1.4,1.4,0,1,1,358.2,187.2Z" transform="translate(-342.813 -178.813)"/>

</symbol>

<symbol id="card-icon" width="19px" height="21px" viewBox="0 0 19 21">
<defs>
    <style>
      .cls-1 {
        fill: #aaadbb;
        fill-rule: evenodd;
        opacity: 0.7;
        filter: url(#filter);
      }
    </style>
    <filter id="filter" x="525" y="179" width="19" height="21" filterUnits="userSpaceOnUse">
      <feFlood result="flood" flood-color="#b7bacd"/>
      <feComposite result="composite" operator="in" in2="SourceGraphic"/>
      <feBlend result="blend" in2="SourceGraphic"/>
    </filter>
  </defs>
  <path id="card" class="cls-1" fill="#aaadbb" d="M543.993,190.308a4.8,4.8,0,0,1-4.747,4.849,4.657,4.657,0,0,1-3.774-1.957l-0.023.017-0.949-1.293-0.95,1.293-0.013-.01a4.693,4.693,0,0,1-3.784,1.95,4.8,4.8,0,0,1-4.746-4.849,4.876,4.876,0,0,1,.962-2.9l-0.013-.01s6.962-8.406,8.544-8.406,8.543,8.406,8.543,8.406l-0.013.01A4.876,4.876,0,0,1,543.993,190.308Zm-11.075,6.465v-1.616a1.582,1.582,0,1,1,3.164,0v1.616a1.617,1.617,0,0,1,0,3.234h-3.164A1.617,1.617,0,0,1,532.918,196.773Z" transform="translate(-525 -179)"/>
</symbol>

<symbol id="basket-icon" width="20px" height="20px" viewBox="0 0 24 24">
<defs>
    <style>
      .cls-1 {
        fill: #aaadbb;
        fill-rule: evenodd;
        opacity: 0.7;
        filter: url(#filter);
      }
    </style>
    <filter id="filter" x="703" y="179" width="20" height="20" filterUnits="userSpaceOnUse">
      <feFlood result="flood" flood-color="#b7bacd"/>
      <feComposite result="composite" operator="in" in2="SourceGraphic"/>
      <feBlend result="blend" in2="SourceGraphic"/>
    </filter>
  </defs>
  <path id="basket" class="cls-1" fill="#aaadbb" d="M722.946,186.765l0.024,0.006-2.5,11.25-0.024-.006a1.231,1.231,0,0,1-1.2.984h-12.5a1.231,1.231,0,0,1-1.2-.984l-0.024.006-2.5-11.25,0.024-.006A1.176,1.176,0,0,1,703,186.5a1.25,1.25,0,0,1,1.25-1.25h2.5a6.25,6.25,0,1,1,12.5,0h2.5A1.25,1.25,0,0,1,723,186.5,1.176,1.176,0,0,1,722.946,186.765ZM713,181.5a3.75,3.75,0,0,0-3.75,3.751h7.5A3.75,3.75,0,0,0,713,181.5Zm5,8.751A1.251,1.251,0,0,1,716.75,189V187.75h-7.5V189a1.25,1.25,0,1,1-2.5,0V187.75h-0.942l1.945,8.749h10.494l1.945-8.749H719.25V189A1.251,1.251,0,0,1,718,190.25Z" transform="translate(-703 -179)"/>
</symbol>

</svg>