<svg width="1101" height="144" viewBox="0 0 1101 144" fill="none" xmlns="http://www.w3.org/2000/svg">
<path fill-rule="evenodd" clip-rule="evenodd" d="M527.898 6.94447C522.977 11.2553 518.76 18.0652 517.462 21.0641C543.037 10.818 540.334 56.238 516.543 50.3653C515.84 59.2994 514.651 62.5481 511.785 68.9832C512.434 62.798 514.651 56.9878 510.596 49.9904C508.271 45.992 499.295 47.4914 496.267 43.4305C487.832 32.2473 496.916 14.0043 510.001 22.1261C508.595 16.8157 507.568 5.75743 510.271 0.0721075C512.326 -0.115321 513.029 1.25915 514.434 1.82144C515.029 2.57115 513.948 3.32086 514.11 4.57038C514.921 3.32086 515.462 1.75896 516.219 0.446964C517.949 1.00925 519.139 2.13382 520.112 3.57076C519.355 5.69495 518.382 7.56923 517.733 9.75589C520.004 8.4439 522.22 4.13305 525.519 2.88353C527.195 3.19591 527.195 5.44505 527.898 6.94447Z" fill="#FDBD13"/>
<path d="M553.311 50.4268L553.798 53.1758C553.798 53.5507 553.96 54.4254 554.23 55.8623C554.501 57.2993 554.663 58.174 554.663 58.6113V58.6738C554.663 59.361 554.392 59.7359 553.906 59.9233C553.257 59.9233 552.77 59.7984 552.392 59.611C552.013 59.4235 551.851 58.9862 551.851 58.4239C551.851 57.1744 551.635 55.3 551.202 52.8634L546.715 52.1762C546.444 53.1758 546.228 54.2379 546.066 55.425C545.903 56.6121 545.795 57.4867 545.633 57.9866C545.363 59.1111 544.876 59.6734 544.119 59.6734C543.741 59.6734 543.416 59.5485 543.146 59.361C542.822 59.1111 542.713 58.8612 542.713 58.4864L542.822 58.1115C544.876 50.3644 546.39 42.7422 547.363 35.3699C547.417 35.1824 547.417 34.5577 547.471 33.558C547.634 31.3713 547.904 29.9968 548.337 29.3721H549.851C550.283 29.3721 550.608 29.497 550.932 29.6845C551.256 29.8719 551.419 30.1843 551.419 30.5591C551.419 32.8083 551.743 36.1821 552.338 40.6804C552.933 45.1788 553.311 48.4276 553.311 50.4268ZM550.932 51.3015C550.824 50.8642 550.824 50.1144 550.824 48.9899C550.824 47.8653 550.77 46.5533 550.662 44.9289C550.553 43.3045 550.337 41.4301 550.121 39.3059C549.905 37.1817 549.742 35.6198 549.634 34.6826C548.228 42.1799 547.363 47.4904 546.985 50.5518C547.417 50.9266 548.769 51.1766 550.932 51.3015Z" fill="#FDBD13"/>
<path d="M556.663 48.674V46.05V44.9879C556.663 40.5521 556.879 37.4907 557.312 35.8038C557.853 33.6796 558.61 32.1802 559.529 31.368C560.826 30.2434 562.449 29.6812 564.449 29.6812C564.936 29.6812 565.26 29.8061 565.531 29.9935C565.747 30.2434 565.855 30.4933 565.855 30.8057C565.855 31.1181 565.747 31.368 565.585 31.6179C565.422 31.8678 565.152 31.9928 564.882 31.9928H562.719C562.07 31.9928 561.529 32.3676 561.097 33.1798C560.664 33.992 560.34 34.9292 560.124 36.0538C559.745 38.2404 559.529 39.9898 559.583 41.4267V41.6142L559.367 50.2984C559.367 52.1102 559.475 53.3597 559.691 54.1095C559.907 54.7967 560.124 55.359 560.34 55.7963C560.556 56.2337 560.826 56.6085 561.097 56.8584C561.8 57.4832 562.665 57.7956 563.746 57.7956C564.125 57.7956 564.449 57.6706 564.719 57.4207C565.098 57.4207 565.368 57.4832 565.693 57.6706C565.963 57.858 566.125 58.108 566.125 58.4203C566.125 59.6074 565.26 60.1697 563.584 60.1697C562.881 60.1697 562.178 60.0447 561.421 59.8573C560.664 59.6699 560.124 59.42 559.745 59.2325C557.69 57.9205 556.663 54.4218 556.663 48.674Z" fill="#FDBD13"/>
<path d="M578.399 50.4268L578.886 53.1758C578.886 53.5507 579.048 54.4254 579.318 55.8623C579.588 57.2993 579.751 58.174 579.751 58.6113V58.6738C579.751 59.361 579.48 59.7359 578.994 59.9233C578.345 59.9233 577.858 59.7984 577.48 59.611C577.101 59.4235 576.939 58.9862 576.939 58.4239C576.939 57.1744 576.723 55.3 576.29 52.8634L571.802 52.1762C571.532 53.1758 571.316 54.2379 571.154 55.425C570.991 56.6121 570.883 57.4867 570.721 57.9866C570.451 59.1111 569.964 59.6734 569.207 59.6734C568.829 59.6734 568.504 59.5485 568.234 59.361C567.909 59.1111 567.801 58.8612 567.801 58.4864L567.909 58.1115C569.964 50.3644 571.478 42.7422 572.451 35.3699C572.505 35.1824 572.505 34.5577 572.559 33.558C572.722 31.3713 572.992 29.9968 573.425 29.3721H574.938C575.371 29.3721 575.695 29.497 576.02 29.6845C576.344 29.8719 576.506 30.1843 576.506 30.5591C576.506 32.8083 576.831 36.1821 577.426 40.6804C578.02 45.1788 578.399 48.4276 578.399 50.4268ZM576.02 51.3015C575.912 50.8642 575.912 50.1144 575.912 48.9899C575.912 47.8653 575.858 46.5533 575.695 44.9289C575.587 43.3045 575.371 41.4301 575.155 39.3059C574.938 37.1817 574.776 35.6198 574.668 34.6826C573.262 42.1799 572.397 47.4904 572.019 50.5518C572.505 50.9266 573.857 51.1766 576.02 51.3015Z" fill="#FDBD13"/>
<path d="M582.346 53.925L582.454 39.805C582.454 38.8679 582.346 37.3684 582.184 35.3691C582.022 33.3699 581.914 32.1203 581.914 31.6205C581.914 31.0582 582.076 30.6833 582.4 30.3709C582.725 30.0585 583.103 29.9336 583.482 29.9336C586.618 29.9336 589.159 31.7454 591.105 35.3691C592.241 37.4309 592.782 39.6176 592.782 41.8668L592.673 44.116V46.6151C592.673 49.614 592.511 51.6133 592.241 52.6129C591.971 53.6126 591.7 54.4873 591.376 55.112C591.105 55.7993 590.727 56.3616 590.294 56.9239C589.321 58.111 588.132 59.1106 586.618 59.7979H583.319C582.725 59.7979 582.346 57.8611 582.346 53.925ZM585.536 56.4241V57.4862C588.186 57.4862 589.754 54.8621 590.294 49.614C590.402 48.4269 590.457 47.2399 590.457 46.1153C590.457 37.1185 588.672 32.3702 585.158 31.9954C584.941 33.1824 584.833 34.8068 584.833 36.8686C584.833 38.9304 584.941 42.1792 585.158 46.5526C585.374 50.926 585.536 54.2374 585.536 56.4241Z" fill="#FDBD13"/>
<path d="M596.188 36.8679L595.917 33.0569C595.917 30.9327 596.566 29.8706 597.81 29.8706C598.621 29.8706 599.756 30.058 601.162 30.4329C602.568 30.8078 603.271 31.3076 603.271 31.8698C603.271 32.4946 602.838 32.9319 601.919 33.2443C600.513 32.807 599.378 32.4946 598.458 32.3697C598.513 32.9944 598.513 33.6817 598.513 34.3064L598.296 40.7415C598.296 40.7415 598.35 40.9914 598.404 41.4287L600.026 41.3662C601.486 41.3662 602.243 41.8036 602.243 42.6158C602.243 42.9281 602.135 43.2405 601.865 43.4279C601.594 43.6154 601.27 43.8028 600.837 43.8028C600.405 43.8028 599.972 43.8028 599.486 43.7403H598.35C598.458 44.8649 598.458 45.9895 598.458 47.114L598.242 55.236C598.242 56.9228 598.296 57.735 598.35 57.735L601.703 57.6101C602.838 57.6101 603.433 57.9849 603.433 58.7346C603.433 59.172 603.217 59.4843 602.838 59.7342C602.46 59.9217 601.973 60.0466 601.486 60.0466H597.647C597.269 60.0466 596.89 59.9217 596.566 59.6718C596.242 59.4219 596.079 59.047 596.079 58.6722V57.4851L595.809 49.9255L596.188 36.8679Z" fill="#FDBD13"/>
<path d="M622.79 59.0467V53.2989C622.79 51.9869 622.682 50.0501 622.466 47.4261C622.25 44.8646 622.141 43.1152 622.141 42.2405C622.141 41.3659 622.196 40.3038 622.25 39.0542C622.304 37.8047 622.358 36.8676 622.358 36.3053C622.25 36.6801 621.709 38.7419 620.844 42.4905C618.519 52.1743 616.897 56.985 615.869 56.985C615.275 56.985 614.788 56.7976 614.464 56.4852C614.139 56.1103 613.977 55.673 613.977 55.1107C613.977 53.6737 613.382 50.7998 612.247 46.364C611.111 41.9282 610.138 38.5544 609.381 36.2428C608.786 46.8013 608.516 53.9237 608.516 57.6098L608.57 58.9218C608.57 59.4216 608.462 59.7965 608.246 60.0464C608.029 60.2963 607.705 60.4212 607.272 60.4212C606.84 60.4212 606.461 60.2963 606.191 60.1088C605.921 59.9214 605.758 59.6715 605.758 59.3591C605.758 56.2978 605.975 51.737 606.461 45.6768C606.948 39.6165 607.164 35.0557 607.164 31.9944C607.002 31.7445 606.894 31.4321 606.894 31.0572C606.894 30.6824 607.056 30.4325 607.434 30.3075C607.813 30.1201 608.191 30.0576 608.624 30.0576C609.273 30.0576 610.571 33.0565 612.517 39.0542C614.464 45.052 615.653 49.2379 616.086 51.4871C616.194 51.0497 616.518 49.9252 616.897 48.1758C617.329 46.4265 617.762 44.5522 618.248 42.6779C618.735 40.7411 619.222 38.8043 619.816 36.8676C621.114 32.3693 622.196 30.1201 623.061 30.1201C623.439 30.1201 623.818 30.245 624.196 30.4325C624.575 30.6199 624.737 30.9323 624.737 31.3071C624.737 33.4938 624.845 36.6801 625.007 40.991C625.223 45.3019 625.278 48.4257 625.278 50.3625L625.169 55.1107C625.169 55.4231 625.278 56.4852 625.44 58.297L625.548 59.1717C625.656 59.4841 625.764 59.8589 625.764 60.1713C625.764 60.5462 625.602 60.921 625.332 61.2959C625.061 61.7332 624.683 61.9207 624.196 61.9207C623.277 61.8582 622.79 60.921 622.79 59.0467Z" fill="#FDBD13"/>
<path d="M634.848 57.1708C634.848 59.1701 634.361 60.1697 633.334 60.1697C632.793 60.1697 632.361 59.8573 632.09 59.17C632.415 58.4828 632.577 55.9838 632.577 51.5479C632.577 50.7357 632.469 49.6111 632.307 48.1117C632.144 46.6123 632.036 45.6127 632.036 44.9879V43.8008C631.982 43.6759 631.496 42.4888 630.63 40.2397C628.63 35.2416 627.603 32.2427 627.603 31.3055V31.0556L628.63 30.3059C629.549 30.3059 630.685 32.6175 631.982 37.2408C632.523 39.2401 632.847 40.2397 632.847 40.3022C632.955 39.9898 633.226 38.8652 633.55 36.9284C634.469 32.0553 635.389 29.6812 636.416 29.6812C636.686 29.6812 636.957 29.7436 637.173 29.9311C637.389 30.1185 637.497 30.3059 637.497 30.6183C637.497 32.1177 637.065 34.2419 636.2 37.1159C635.334 39.9273 634.902 42.114 634.848 43.6134V57.1708Z" fill="#FDBD13"/>
<path d="M543.199 12.3176L543.091 11.193V11.068C543.091 10.7556 543.145 10.5057 543.253 10.3183C543.361 10.1308 543.577 10.0684 544.01 10.0684C544.443 10.0684 544.821 10.1933 545.2 10.3807C545.578 10.5682 545.902 10.8806 546.119 11.2554C546.551 11.9427 546.768 12.8174 546.768 13.6921C546.768 14.6292 546.714 15.3165 546.551 15.8788C546.389 16.4411 546.173 16.9409 545.848 17.3783C546.443 17.9406 546.768 18.8153 546.876 20.1273C546.876 20.4397 546.876 20.7521 546.93 21.1894C546.93 21.5643 546.876 22.0016 546.822 22.3765C546.768 22.7514 546.605 23.1262 546.443 23.5011C546.281 23.876 546.065 24.1884 545.794 24.4383C545.254 25.0006 544.497 25.2505 543.577 25.2505C543.253 25.2505 543.037 25.1255 542.983 24.8131C542.929 24.6257 542.875 24.3758 542.875 24.0634L543.091 19.3776L543.199 12.3176ZM544.118 22.9388V23.0638V24.0634C544.605 23.9385 544.983 23.6261 545.254 23.1887C545.524 22.6889 545.632 22.2515 545.632 21.8767C545.632 21.5018 545.632 21.1269 545.632 20.9395C545.632 20.6896 545.578 20.4397 545.524 20.0648C545.47 19.69 545.416 19.44 545.308 19.1901C545.091 18.5654 544.767 18.1905 544.28 18.128C544.226 19.0652 544.172 20.1898 544.172 21.4393L544.118 22.9388ZM544.28 13.4422V16.7535C545.091 16.7535 545.47 15.8163 545.47 13.942C545.47 12.0677 545.145 11.1305 544.551 11.068C544.334 11.4429 544.28 12.2551 544.28 13.4422Z" fill="#FDBD13"/>
<path d="M548.444 13.8123L548.336 11.9379C548.336 10.8758 548.661 10.376 549.255 10.376C549.634 10.376 550.229 10.4385 550.878 10.6259C551.58 10.8133 551.905 11.0632 551.905 11.3132C551.905 11.6255 551.689 11.8755 551.256 12.0004C550.553 11.7505 550.012 11.6255 549.58 11.5631C549.58 11.8755 549.634 12.1879 549.634 12.5002L549.526 15.6866C549.526 15.6866 549.526 15.8116 549.58 16.0615L550.391 15.999C551.094 15.999 551.472 16.1865 551.472 16.6238C551.472 16.8113 551.418 16.9362 551.256 17.0612C551.148 17.1861 550.932 17.2486 550.769 17.2486C550.553 17.2486 550.337 17.2486 550.121 17.1861H549.526C549.58 17.7484 549.58 18.3107 549.58 18.873L549.472 22.8717C549.472 23.6839 549.472 24.1212 549.526 24.1212L551.202 24.0588C551.797 24.0588 552.067 24.2462 552.067 24.6211C552.067 24.871 551.959 24.9959 551.797 25.1209C551.58 25.2458 551.364 25.2458 551.148 25.2458H549.255C549.039 25.2458 548.877 25.1834 548.715 25.0584C548.553 24.9335 548.444 24.746 548.444 24.5586V23.9963L548.282 20.2476L548.444 13.8123Z" fill="#FDBD13"/>
<path d="M553.473 13.8123L553.365 11.9379C553.365 10.8758 553.689 10.376 554.284 10.376C554.662 10.376 555.257 10.4385 555.906 10.6259C556.609 10.8133 556.933 11.0632 556.933 11.3132C556.933 11.6255 556.717 11.8755 556.284 12.0004C555.581 11.7505 555.041 11.6255 554.608 11.5631C554.608 11.8755 554.662 12.1879 554.662 12.5002L554.554 15.6866C554.554 15.6866 554.554 15.8116 554.608 16.0615L555.419 15.999C556.122 15.999 556.501 16.1865 556.501 16.6238C556.501 16.8113 556.447 16.9362 556.284 17.0612C556.176 17.1861 555.96 17.2486 555.798 17.2486C555.581 17.2486 555.365 17.2486 555.149 17.1861H554.554C554.608 17.7484 554.608 18.3107 554.608 18.873L554.5 22.8717C554.5 23.6839 554.5 24.1212 554.554 24.1212L556.23 24.0588C556.825 24.0588 557.095 24.2462 557.095 24.6211C557.095 24.871 556.987 24.9959 556.825 25.1209C556.609 25.2458 556.392 25.2458 556.176 25.2458H554.284C554.068 25.2458 553.905 25.1834 553.743 25.0584C553.581 24.9335 553.473 24.746 553.473 24.5586V23.9963L553.311 20.2476L553.473 13.8123Z" fill="#FDBD13"/>
<path d="M560.339 24.5623L560.285 22.8753C560.285 22.8753 560.285 22.6254 560.339 22.1255C560.285 21.9381 560.177 20.2511 559.961 17.1269C559.744 14.0028 559.69 12.0659 559.69 11.3786C559.636 11.3786 559.636 11.3786 559.582 11.3786C558.392 11.3786 557.744 11.1287 557.744 10.6913C557.744 10.5663 557.798 10.4414 557.96 10.3789C558.122 10.3164 558.284 10.2539 558.447 10.2539L561.474 10.4414H561.853C562.34 10.4414 562.556 10.6288 562.556 10.9412C562.556 11.1287 562.502 11.2536 562.34 11.3786C562.177 11.5036 562.015 11.566 561.799 11.566L560.772 11.4411L560.717 11.691C560.717 13.0656 560.826 15.19 561.096 17.9392C561.366 20.6884 561.474 22.8128 561.474 24.1874C561.474 24.3749 561.42 24.4998 561.258 24.6248C561.096 24.7498 560.934 24.8123 560.717 24.8123L560.339 24.5623Z" fill="#FDBD13"/>
<path d="M564.719 17.5637V19.9378C564.719 21.8746 564.882 23.4366 565.152 24.5611L564.882 25.1234H564.233L563.962 24.811C563.962 24.1238 563.962 23.4366 563.962 22.5619C563.962 21.7497 563.908 20.0003 563.746 17.3138C563.638 14.6273 563.53 12.628 563.53 11.316C563.53 10.6288 563.8 10.2539 564.287 10.2539C565.044 10.2539 565.747 10.4413 566.233 10.8787C566.774 11.2535 567.044 11.8783 567.044 12.628V14.19C567.044 14.6273 566.99 15.0022 566.828 15.377C566.666 15.7519 566.504 16.0643 566.287 16.5016C566.071 16.8765 565.963 17.1264 565.963 17.1264C566.017 17.5012 566.179 18.1885 566.395 19.2506C566.828 21.5622 567.315 23.1866 567.855 24.1863C568.018 24.4987 568.072 24.6861 568.072 24.8735C568.072 25.061 568.018 25.1859 567.909 25.3109C567.801 25.4358 567.693 25.4983 567.531 25.4983C567.207 25.4983 566.936 25.1234 566.612 24.4362C566.287 23.7489 566.071 22.9367 565.909 22.0621C565.368 19.438 565.044 18.0011 564.936 17.6887H564.719V17.5637ZM564.827 11.0661L564.773 11.3785C564.773 12.0033 564.773 12.8779 564.827 14.0025C564.882 15.1271 564.882 15.9393 564.882 16.5016C565.206 16.3142 565.53 15.8768 565.747 15.1271C565.963 14.3774 566.071 13.8151 566.071 13.3778C566.071 12.9404 566.071 12.6905 566.017 12.5031C566.017 12.3156 565.963 12.1282 565.855 11.8783C565.693 11.316 565.314 11.0661 564.827 11.0661Z" fill="#FDBD13"/>
<path d="M568.882 18.1923V17.3801C568.882 17.3177 568.882 17.2552 568.828 17.2552V16.8803C568.828 14.5687 568.936 12.9443 569.207 11.9446C569.423 11.1324 569.639 10.6326 569.855 10.4452C570.072 10.2578 570.288 10.1328 570.504 10.1328C572.234 10.1328 573.424 11.0075 574.073 12.6944C574.451 13.694 574.668 14.8811 574.668 16.3805V16.5679L574.722 19.067C574.722 23.3155 573.748 25.3772 571.748 25.3772C570.937 25.3772 570.288 24.9399 569.855 24.0027C569.423 23.128 569.207 22.3158 569.098 21.4411C568.936 20.1916 568.882 19.1295 568.882 18.1923ZM570.18 15.1934L570.072 17.2552C570.072 19.3794 570.234 21.2537 570.612 22.8156C570.991 23.7528 571.315 24.3151 571.694 24.44C571.964 24.44 572.234 24.3151 572.451 24.1277C572.667 23.9402 572.829 23.6278 572.991 23.253C573.1 22.8781 573.208 22.5033 573.316 22.1284C573.37 21.7535 573.478 21.3162 573.478 20.8789C573.532 20.0667 573.586 19.4419 573.586 18.8796C573.586 18.3173 573.532 17.5051 573.424 16.318C573.316 15.1934 573.262 14.3188 573.262 13.7565V13.3816C573.262 12.8193 573.046 12.382 572.721 11.9446C572.397 11.5073 571.964 11.3199 571.423 11.3199C570.937 11.3199 570.558 11.6323 570.396 12.1946C570.234 12.6944 570.18 13.2567 570.18 13.9439V15.1934Z" fill="#FDBD13"/>
<path d="M576.02 18.1923V17.3801C576.02 17.3177 576.02 17.2552 575.966 17.2552V16.8803C575.966 14.5687 576.128 12.9443 576.398 11.9446C576.615 11.1324 576.831 10.6326 577.047 10.4452C577.263 10.2578 577.48 10.1328 577.696 10.1328C579.426 10.1328 580.616 11.0075 581.265 12.6944C581.643 13.694 581.859 14.8811 581.859 16.3805V16.5679L581.913 19.067C581.913 23.3155 580.94 25.3772 578.94 25.3772C578.129 25.3772 577.48 24.9399 577.047 24.0027C576.615 23.128 576.398 22.3158 576.29 21.4411C576.074 20.1916 576.02 19.1295 576.02 18.1923ZM577.318 15.1934L577.209 17.2552C577.209 19.3794 577.372 21.2537 577.75 22.8156C578.129 23.7528 578.453 24.3151 578.831 24.44C579.102 24.44 579.372 24.3151 579.588 24.1277C579.805 23.9402 579.967 23.6278 580.129 23.253C580.237 22.8781 580.345 22.5033 580.454 22.1284C580.508 21.7535 580.616 21.3162 580.616 20.8789C580.67 20.0667 580.724 19.4419 580.724 18.8796C580.724 18.3173 580.67 17.5051 580.562 16.318C580.454 15.1934 580.4 14.3188 580.4 13.7565V13.3816C580.4 12.8193 580.183 12.382 579.859 11.9446C579.534 11.5073 579.102 11.3199 578.561 11.3199C578.075 11.3199 577.696 11.6323 577.534 12.1946C577.372 12.6944 577.318 13.2567 577.318 13.9439V15.1934Z" fill="#FDBD13"/>
<path d="M585.374 24.5623L585.32 22.8753C585.32 22.8753 585.32 22.6254 585.374 22.1255C585.32 21.9381 585.212 20.2511 584.996 17.1269C584.833 14.0028 584.725 12.0659 584.725 11.3786C584.671 11.3786 584.671 11.3786 584.617 11.3786C583.428 11.3786 582.779 11.1287 582.779 10.6913C582.779 10.5663 582.833 10.4414 582.995 10.3789C583.157 10.3164 583.319 10.2539 583.482 10.2539L586.51 10.4414H586.888C587.375 10.4414 587.591 10.6288 587.591 10.9412C587.591 11.1287 587.537 11.2536 587.375 11.3786C587.212 11.5036 587.05 11.566 586.834 11.566L585.807 11.4411L585.753 11.691C585.753 13.0656 585.861 15.19 586.131 17.9392C586.401 20.6884 586.51 22.8128 586.51 24.1874C586.51 24.3749 586.455 24.4998 586.293 24.6248C586.131 24.7498 585.969 24.8123 585.753 24.8123L585.374 24.5623Z" fill="#FDBD13"/>
<path d="M901.594 107.589C900.286 105.786 898.884 104.335 898.884 101.01V89.9365C898.884 85.2543 899.217 80.9466 895.722 77.7158C892.94 75.0937 888.375 74.1807 884.856 74.1807C878.009 74.1807 870.353 76.6857 868.736 85.0436C868.57 85.9332 869.236 86.4014 869.806 86.5419L876.82 87.291C877.462 87.2676 877.937 86.6355 878.056 86.0034C878.651 83.1238 881.1 81.7425 883.858 81.7425C885.332 81.7425 887.02 82.281 887.899 83.592C888.898 85.0435 888.779 87.0569 888.779 88.7425V89.6556C884.595 90.1238 879.15 90.4282 875.227 92.1372C870.686 94.0101 867.5 97.9432 867.5 103.702C867.5 111.077 872.231 114.776 878.294 114.776C883.43 114.776 886.235 113.582 890.182 109.602C891.489 111.475 891.917 112.388 894.319 114.331C894.866 114.612 895.555 114.589 896.031 114.167H896.054C897.481 112.926 900.096 110.656 901.57 109.462C902.165 108.993 902.046 108.221 901.594 107.589ZM888.755 96.8663C888.755 99.6288 888.827 101.947 887.4 104.405C886.259 106.395 884.452 107.636 882.407 107.636C879.649 107.636 878.033 105.575 878.033 102.485C878.033 96.4449 883.548 95.3446 888.732 95.3446V96.8663H888.755ZM907.229 113.067V76.6155C907.229 75.8897 907.847 75.3044 908.632 75.3044H915.36C916.05 75.3278 916.62 75.8663 916.668 76.5218V81.2743H916.787C918.546 76.6623 921.851 74.5318 926.297 74.5318C930.814 74.5318 933.643 76.6857 935.664 81.2743C937.424 76.6623 941.371 74.5318 945.626 74.5318C948.646 74.5318 951.951 75.7726 953.972 78.5118C956.254 81.5787 955.778 86.0268 955.778 89.9365V112.926C955.778 113.652 955.16 114.238 954.399 114.238H947.148C946.435 114.167 945.84 113.629 945.84 112.926V93.6121C945.84 92.067 945.983 88.2509 945.626 86.776C945.079 84.3178 943.487 83.6389 941.394 83.6389C939.659 83.6389 937.828 84.786 937.091 86.6355C936.354 88.4616 936.425 91.5519 936.425 93.6121V112.926C936.425 113.652 935.807 114.238 935.022 114.238H927.818C927.081 114.167 926.511 113.629 926.511 112.926V93.6121C926.511 89.5385 927.177 83.5686 922.065 83.5686C916.882 83.5686 917.096 89.3981 917.096 93.6121V112.926C917.096 113.652 916.478 114.238 915.717 114.238H908.513C907.823 114.214 907.276 113.722 907.229 113.067ZM1012.06 128.261C998.503 138.094 978.912 143.338 962.008 143.338C938.327 143.338 917.001 134.699 900.857 120.348C899.597 119.224 900.714 117.679 902.236 118.569C919.64 128.542 941.18 134.535 963.41 134.535C978.413 134.535 994.913 131.492 1010.08 125.147C1012.39 124.187 1014.29 126.622 1012.06 128.261ZM1029.29 106.418V111.99C1029.29 112.739 1028.46 113.652 1027.56 113.184C1020.26 109.415 1010.6 108.993 1002.52 113.207C1001.71 113.652 1000.83 112.786 1000.83 112.013V106.722C1000.83 105.88 1000.83 104.428 1001.71 103.141L1015.95 83.0536H1003.57C1002.81 83.0536 1002.19 82.5151 1002.19 81.7425V76.5218C1002.19 75.7258 1002.78 75.2108 1003.52 75.2108H1027.22C1027.98 75.2108 1028.6 75.7492 1028.6 76.5218V80.9934C1028.6 81.7425 1027.96 82.7258 1026.82 84.271L1014.53 101.525C1019.09 101.408 1023.92 102.087 1028.06 104.381C1028.96 104.92 1029.22 105.669 1029.29 106.418ZM983.287 89.6322C979.102 90.1004 973.634 90.4048 969.735 92.0904C965.217 94.0101 962.055 97.9432 962.055 103.702C962.055 111.077 966.763 114.776 972.826 114.776C977.937 114.776 980.767 113.582 984.713 109.602C986.021 111.475 986.449 112.388 988.85 114.331C989.397 114.612 990.087 114.589 990.562 114.167C992.012 112.926 994.628 110.656 996.078 109.462C996.649 108.993 996.577 108.221 996.102 107.589C994.794 105.786 993.391 104.335 993.391 101.01V89.9365C993.391 85.2543 993.724 80.9466 990.205 77.7158C987.447 75.0937 982.859 74.1807 979.34 74.1807C972.493 74.1807 964.813 76.6857 963.22 85.0436C963.054 85.9332 963.696 86.4014 964.29 86.5419L971.28 87.291C971.922 87.2676 972.421 86.6355 972.54 85.98C973.135 83.1004 975.583 81.7191 978.341 81.7191C979.816 81.7191 981.504 82.2576 982.383 83.5686C983.406 85.0201 983.263 87.0335 983.263 88.7191L983.287 89.6322ZM983.287 96.8663C983.287 99.6288 983.358 101.947 981.932 104.405C980.79 106.395 978.96 107.636 976.962 107.636C974.181 107.636 972.564 105.575 972.564 102.485C972.564 96.4449 978.08 95.3446 983.287 95.3446V96.8663ZM1048.98 74.5318C1038.54 74.5318 1032.76 83.3579 1032.76 94.689C1032.76 105.95 1038.47 115.01 1048.98 115.01C1059.06 115.01 1065.48 106.184 1065.48 95.087C1065.5 83.592 1059.7 74.5318 1048.98 74.5318ZM1048.98 107.518C1043.32 107.518 1043.39 98.0135 1043.39 93.5653C1043.39 89.1171 1043.72 82.0001 1049.03 82.0001C1051.31 82.0001 1052.95 82.9833 1053.73 85.5352C1054.68 88.4382 1054.8 92.1138 1054.8 95.2041C1054.85 99.8395 1054.59 107.518 1048.98 107.518ZM1098.62 78.8395C1100.5 81.766 1100.5 86.6589 1100.5 90.1941V113.137C1100.4 113.769 1099.81 114.284 1099.1 114.284H1091.87C1091.23 114.214 1090.66 113.746 1090.59 113.137V93.3546C1090.59 89.3747 1091.06 83.5452 1086.09 83.5452C1084.33 83.5452 1082.72 84.6924 1081.93 86.4482C1080.91 88.6723 1080.77 90.8964 1080.77 93.3546V112.973C1080.77 113.699 1080.12 114.308 1079.36 114.308H1072.18C1071.45 114.261 1070.88 113.676 1070.88 112.973V76.5218C1070.95 75.8429 1071.54 75.3278 1072.28 75.3278H1078.96C1079.58 75.3512 1080.12 75.7726 1080.24 76.3579V81.9298H1080.36C1082.36 76.9432 1085.21 74.5787 1090.18 74.5787C1093.41 74.5318 1096.58 75.7024 1098.62 78.8395ZM1023.44 117.585C1024.92 119.411 1023.06 131.937 1015.79 137.906C1014.67 138.819 1013.6 138.328 1014.1 137.11C1015.74 133.107 1019.4 124.094 1017.67 121.916C1015.95 119.739 1006.23 120.886 1001.88 121.401C1000.55 121.565 1000.36 120.418 1001.55 119.599C1009.27 114.238 1021.97 115.783 1023.44 117.585Z" fill="#FDBD13"/>
<path d="M119.923 108.514C121.588 103.839 124.836 101.543 129.334 101.543C135.83 101.543 142.326 101.461 148.85 101.598C150.71 101.625 151.127 101.078 151.127 99.3289C151.071 94.5451 151.154 94.5451 146.241 94.5451C138.273 94.5451 130.305 94.4631 122.338 94.5998C120.2 94.6271 119.756 93.9984 119.812 92.0302C119.95 86.8909 119.923 81.7517 119.812 76.6125C119.784 74.945 120.089 74.2889 122.005 74.3162C133.165 74.3983 144.353 74.3983 155.513 74.3436C157.595 74.3436 157.706 74.9997 156.707 76.4758C154.763 79.3188 152.32 81.1777 148.6 81.123C142.104 81.041 135.608 81.1777 129.084 81.041C127.002 80.9863 126.224 81.533 126.558 83.5832C126.669 84.294 126.669 85.0321 126.558 85.7428C126.308 87.4377 127.03 87.875 128.695 87.8477C137.579 87.7657 146.463 87.875 155.346 87.7657C157.179 87.7384 157.873 88.0937 157.845 90.0893C157.706 95.5839 157.789 101.078 157.789 106.6C157.789 107.557 158.067 108.596 156.401 108.596C144.325 108.487 132.277 108.514 119.923 108.514Z" fill="#FDBD13"/>
<path d="M25.2 94.9287C25.2 98.701 25.1167 102.501 25.2555 106.273C25.311 108.05 24.8391 108.569 23.0068 108.569C18.3151 108.515 18.3151 108.597 18.3151 103.868C18.3151 97.1976 18.2318 90.5276 18.3706 83.8576C18.3984 81.8074 17.982 80.9053 15.7055 81.0967C13.3458 81.3154 10.9583 81.1513 8.57081 81.1513C4.62867 81.124 2.21342 78.8551 0.353394 75.7661C-0.312883 74.6454 -0.0630288 74.1807 1.32505 74.1807C14.956 74.208 28.5869 74.208 42.2178 74.1807C43.6614 74.1807 43.7169 74.7 43.245 75.7935C42.0235 78.6364 38.2479 81.124 34.9998 81.1513C32.6123 81.1787 30.2248 81.3154 27.8651 81.0967C25.5609 80.878 25.1167 81.8347 25.2 83.8576C25.311 87.548 25.2 91.2383 25.2 94.9287Z" fill="#FDBD13"/>
<path d="M252.428 87.6313C258.008 87.6313 263.588 87.7133 269.168 87.5766C271.056 87.5219 271.444 88.1507 271.417 89.8455C271.306 95.34 271.333 100.835 271.417 106.329C271.444 107.778 271.167 108.379 269.501 108.379C264.587 108.434 264.587 108.516 264.587 103.623C264.587 101.108 264.532 98.5656 264.615 96.0507C264.643 94.9026 264.31 94.4926 263.088 94.4926C255.954 94.5473 248.819 94.5473 241.684 94.4926C240.352 94.4926 240.213 95.0667 240.24 96.1328C240.296 99.5497 240.185 102.994 240.296 106.411C240.352 107.969 239.852 108.352 238.297 108.379C233.494 108.434 233.494 108.489 233.494 103.814C233.494 99.1397 233.578 94.4379 233.467 89.7635C233.439 88.0687 233.828 87.4673 235.715 87.5219C241.295 87.6586 246.875 87.5766 252.456 87.5766C252.428 87.5766 252.428 87.6039 252.428 87.6313Z" fill="#FDBD13"/>
<path d="M177.055 91.1833C177.055 86.3173 177.138 81.424 177 76.5581C176.944 74.7812 177.444 74.2892 179.248 74.3165C183.801 74.3985 183.773 74.2892 183.746 78.8817C183.718 85.7433 183.773 92.6048 183.69 99.439C183.662 101.107 184.134 101.571 185.828 101.571C194.351 101.489 202.873 101.599 211.396 101.489C213.811 101.462 213.811 102.255 212.784 103.895C211.119 106.574 209.009 108.296 205.483 108.241C196.683 108.077 187.882 108.105 179.109 108.159C177.416 108.159 176.944 107.722 176.972 106.054C177.111 101.107 177.055 96.1312 177.055 91.1833Z" fill="#FDBD13"/>
<path d="M80.3895 87.6298C86.3305 87.6298 92.2714 87.7118 98.2124 87.5751C100.6 87.5204 100.433 88.4226 99.4339 89.8441C97.4073 92.7146 94.881 94.6009 91.0777 94.5462C83.7764 94.4369 76.4473 94.5189 69.1461 94.5189C65.2317 94.5189 62.7609 92.3045 60.9009 89.188C60.0403 87.7665 60.7343 87.5751 62.0391 87.5751C68.1466 87.6571 74.2542 87.6298 80.3895 87.6298Z" fill="#FDBD13"/>
<path d="M60.5684 101.791C61.2069 101.326 61.9564 101.545 62.6505 101.545C74.3936 101.518 86.109 101.518 97.8521 101.545C98.6017 101.545 99.6566 101.053 100.045 101.955C100.378 102.748 99.6844 103.486 99.1847 104.114C97.1026 106.821 94.5485 108.543 90.8562 108.461C83.6104 108.324 76.3647 108.433 69.1467 108.406C65.2045 108.433 61.6788 105.645 60.5684 101.791Z" fill="#FDBD13"/>
<path d="M60.54 74.509C61.0953 74.4816 61.595 74.3996 62.1224 74.3996C74.1154 74.3996 86.0807 74.3996 98.0736 74.427C98.7399 74.427 99.6561 73.9622 100.017 74.8097C100.35 75.5477 99.7116 76.2038 99.2952 76.7505C97.2686 79.4842 94.7978 81.343 91.0777 81.2884C83.7487 81.179 76.4474 81.261 69.1184 81.261C65.1762 81.2337 61.7338 78.5821 60.54 74.509Z" fill="#FDBD13"/>
<path d="M272 74.645C270.667 78.6635 267.419 81.0691 263.338 81.0691C255.926 81.0691 248.541 81.0417 241.129 81.0691C237.325 81.0964 234.855 79.0462 232.884 76.1485C232.245 75.2191 231.912 74.317 233.716 74.3444C246.32 74.3717 258.952 74.3717 271.555 74.399C271.722 74.399 271.861 74.563 272 74.645Z" fill="#FDBD13"/>
<path d="M402.952 72.0851C403.059 82.4762 412.886 85.9236 413 85.9796C412.907 86.2109 411.427 90.9054 407.813 95.7472C404.689 99.9302 401.451 104.092 396.349 104.176C391.332 104.267 389.717 101.451 383.982 101.451C378.246 101.451 376.453 104.092 371.707 104.267C366.783 104.443 363.033 99.7551 359.88 95.579C353.448 87.0517 348.53 71.4825 355.134 60.9793C358.407 55.7592 364.271 52.459 370.632 52.3679C375.471 52.2908 380.039 55.3598 382.993 55.3598C385.953 55.3598 391.503 51.6742 397.338 52.2138C399.779 52.3049 406.638 53.1176 411.036 59.0104C410.694 59.2136 402.853 63.3896 402.952 72.0851ZM382.409 51.429C381.84 47.4842 383.96 43.3782 386.387 40.8067C389.084 37.8988 393.652 35.7407 397.416 35.6006C397.9 39.6225 396.128 43.6584 393.517 46.5663C390.898 49.4671 386.607 51.7233 382.409 51.429Z" fill="#FDBD13"/>
<path d="M752.5 35.6006C733.171 35.6006 717.5 51.0319 717.5 70.0643C717.5 89.0968 733.171 104.528 752.5 104.528C771.829 104.528 787.5 89.0968 787.5 70.0643C787.5 51.0319 771.829 35.6006 752.5 35.6006ZM753.021 95.9121C738.514 95.9121 726.771 84.3492 726.771 70.0643C726.771 55.7795 738.514 44.2165 753.021 44.2165C760.1 44.2165 766.036 46.7626 770.6 50.9756L763.479 57.7348C761.521 55.892 758.121 53.7468 753.021 53.7468C744.05 53.7468 736.75 61.0616 736.75 70.0643C736.75 79.0671 744.064 86.3819 753.021 86.3819C763.414 86.3819 767.307 79.0319 767.907 75.2339H753.021V66.3788H777.807C778.029 67.673 778.214 68.9601 778.214 70.6622C778.229 85.4253 768.179 95.9121 753.021 95.9121Z" fill="#FDBD13"/>
</svg>
