
<svg display='none' xmlns="http://www.w3.org/2000/svg" >

    <symbol id="google"  width="71" height="70" viewBox="0 0 71 70">
        <path d="M35.5 0.600586C16.1714 0.600586 0.5 16.0319 0.5 35.0643C0.5 54.0968 16.1714 69.5281 35.5 69.5281C54.8286 69.5281 70.5 54.0968 70.5 35.0643C70.5 16.0319 54.8286 0.600586 35.5 0.600586ZM36.0214 60.9121C21.5143 60.9121 9.77143 49.3492 9.77143 35.0643C9.77143 20.7795 21.5143 9.21652 36.0214 9.21652C43.1 9.21652 49.0357 11.7626 53.6 15.9756L46.4786 22.7348C44.5214 20.892 41.1214 18.7468 36.0214 18.7468C27.05 18.7468 19.75 26.0616 19.75 35.0643C19.75 44.0671 27.0643 51.3819 36.0214 51.3819C46.4143 51.3819 50.3071 44.0319 50.9071 40.2339H36.0214V31.3788H60.8071C61.0286 32.673 61.2143 33.9601 61.2143 35.6622C61.2286 50.4253 51.1786 60.9121 36.0214 60.9121Z" fill="#FDBD13"/>
    </symbol>

   <symbol id="beetroot" width="145" height="69" viewBox="0 0 145 69">
        <path fill-rule="evenodd" clip-rule="evenodd" d="M34.8978 6.94447C29.9775 11.2553 25.76 18.0652 24.4624 21.0641C50.0373 10.818 47.3338 56.238 23.5432 50.3653C22.8403 59.2994 21.6507 62.5481 18.7851 68.9832C19.4339 62.798 21.6507 56.9878 17.5955 49.9904C15.2705 45.992 6.29497 47.4914 3.26708 43.4305C-5.16778 32.2473 3.91591 14.0043 17.0008 22.1261C15.5949 16.8157 14.5676 5.75743 17.2711 0.0721075C19.3258 -0.115321 20.0287 1.25915 21.4345 1.82144C22.0292 2.57115 20.9478 3.32086 21.11 4.57038C21.9211 3.32086 22.4618 1.75896 23.2188 0.446964C24.949 1.00925 26.1385 2.13382 27.1118 3.57076C26.3548 5.69495 25.3815 7.56923 24.7327 9.75589C27.0036 8.4439 29.2205 4.13305 32.5187 2.88353C34.1949 3.19591 34.1949 5.44505 34.8978 6.94447Z" fill="#FDBD13"/>
        <path d="M60.311 50.4268L60.7976 53.1758C60.7976 53.5507 60.9598 54.4254 61.2302 55.8623C61.5005 57.2993 61.6627 58.174 61.6627 58.6113V58.6738C61.6627 59.361 61.3924 59.7359 60.9057 59.9233C60.2569 59.9233 59.7703 59.7984 59.3918 59.611C59.0133 59.4235 58.8511 58.9862 58.8511 58.4239C58.8511 57.1744 58.6348 55.3 58.2023 52.8634L53.7145 52.1762C53.4442 53.1758 53.2279 54.2379 53.0657 55.425C52.9035 56.6121 52.7953 57.4867 52.6331 57.9866C52.3628 59.1111 51.8762 59.6734 51.1192 59.6734C50.7407 59.6734 50.4163 59.5485 50.1459 59.361C49.8215 59.1111 49.7134 58.8612 49.7134 58.4864L49.8215 58.1115C51.8762 50.3644 53.3901 42.7422 54.3633 35.3699C54.4174 35.1824 54.4174 34.5577 54.4715 33.558C54.6337 31.3713 54.904 29.9968 55.3366 29.3721H56.8505C57.2831 29.3721 57.6075 29.497 57.9319 29.6845C58.2563 29.8719 58.4186 30.1843 58.4186 30.5591C58.4186 32.8083 58.743 36.1821 59.3377 40.6804C59.9325 45.1788 60.311 48.4276 60.311 50.4268ZM57.9319 51.3015C57.8238 50.8642 57.8238 50.1144 57.8238 48.9899C57.8238 47.8653 57.7697 46.5533 57.6616 44.9289C57.5534 43.3045 57.3372 41.4301 57.1209 39.3059C56.9046 37.1817 56.7424 35.6198 56.6343 34.6826C55.2285 42.1799 54.3633 47.4904 53.9849 50.5518C54.4174 50.9266 55.7692 51.1766 57.9319 51.3015Z" fill="#FDBD13"/>
        <path d="M63.6631 48.674V46.05V44.9879C63.6631 40.5521 63.8794 37.4907 64.3119 35.8038C64.8526 33.6796 65.6096 32.1802 66.5288 31.368C67.8265 30.2434 69.4486 29.6812 71.4491 29.6812C71.9358 29.6812 72.2602 29.8061 72.5305 29.9935C72.7468 30.2434 72.855 30.4933 72.855 30.8057C72.855 31.1181 72.7468 31.368 72.5846 31.6179C72.4224 31.8678 72.152 31.9928 71.8817 31.9928H69.7189C69.0701 31.9928 68.5294 32.3676 68.0968 33.1798C67.6643 33.992 67.3398 34.9292 67.1236 36.0538C66.7451 38.2404 66.5288 39.9898 66.5829 41.4267V41.6142L66.3666 50.2984C66.3666 52.1102 66.4747 53.3597 66.691 54.1095C66.9073 54.7967 67.1236 55.359 67.3398 55.7963C67.5561 56.2337 67.8265 56.6085 68.0968 56.8584C68.7997 57.4832 69.6648 57.7956 70.7462 57.7956C71.1247 57.7956 71.4491 57.6706 71.7195 57.4207C72.098 57.4207 72.3683 57.4832 72.6927 57.6706C72.9631 57.858 73.1253 58.108 73.1253 58.4203C73.1253 59.6074 72.2602 60.1697 70.584 60.1697C69.8811 60.1697 69.1782 60.0447 68.4212 59.8573C67.6643 59.6699 67.1236 59.42 66.7451 59.2325C64.6904 57.9205 63.6631 54.4218 63.6631 48.674Z" fill="#FDBD13"/>
        <path d="M85.3989 50.4268L85.8856 53.1758C85.8856 53.5507 86.0478 54.4254 86.3181 55.8623C86.5885 57.2993 86.7507 58.174 86.7507 58.6113V58.6738C86.7507 59.361 86.4803 59.7359 85.9937 59.9233C85.3449 59.9233 84.8582 59.7984 84.4797 59.611C84.1013 59.4235 83.939 58.9862 83.939 58.4239C83.939 57.1744 83.7228 55.3 83.2902 52.8634L78.8024 52.1762C78.5321 53.1758 78.3158 54.2379 78.1536 55.425C77.9914 56.6121 77.8832 57.4867 77.721 57.9866C77.4507 59.1111 76.9641 59.6734 76.2071 59.6734C75.8286 59.6734 75.5042 59.5485 75.2338 59.361C74.9094 59.1111 74.8013 58.8612 74.8013 58.4864L74.9094 58.1115C76.9641 50.3644 78.478 42.7422 79.4513 35.3699C79.5053 35.1824 79.5053 34.5577 79.5594 33.558C79.7216 31.3713 79.992 29.9968 80.4245 29.3721H81.9385C82.371 29.3721 82.6954 29.497 83.0199 29.6845C83.3443 29.8719 83.5065 30.1843 83.5065 30.5591C83.5065 32.8083 83.8309 36.1821 84.4257 40.6804C85.0204 45.1788 85.3989 48.4276 85.3989 50.4268ZM83.0199 51.3015C82.9117 50.8642 82.9117 50.1144 82.9117 48.9899C82.9117 47.8653 82.8577 46.5533 82.6954 44.9289C82.5873 43.3045 82.371 41.4301 82.1547 39.3059C81.9385 37.1817 81.7763 35.6198 81.6681 34.6826C80.2623 42.1799 79.3972 47.4904 79.0187 50.5518C79.5053 50.9266 80.8571 51.1766 83.0199 51.3015Z" fill="#FDBD13"/>
        <path d="M89.3461 53.925L89.4543 39.805C89.4543 38.8679 89.3461 37.3684 89.1839 35.3691C89.0217 33.3699 88.9136 32.1203 88.9136 31.6205C88.9136 31.0582 89.0758 30.6833 89.4002 30.3709C89.7246 30.0585 90.1031 29.9336 90.4816 29.9336C93.6176 29.9336 96.1589 31.7454 98.1054 35.3691C99.2409 37.4309 99.7816 39.6176 99.7816 41.8668L99.6734 44.116V46.6151C99.6734 49.614 99.5112 51.6133 99.2409 52.6129C98.9705 53.6126 98.7002 54.4873 98.3757 55.112C98.1054 55.7993 97.7269 56.3616 97.2944 56.9239C96.3211 58.111 95.1316 59.1106 93.6176 59.7979H90.3194C89.7246 59.7979 89.3461 57.8611 89.3461 53.925ZM92.5362 56.4241V57.4862C95.1856 57.4862 96.7537 54.8621 97.2944 49.614C97.4025 48.4269 97.4566 47.2399 97.4566 46.1153C97.4566 37.1185 95.6723 32.3702 92.1577 31.9954C91.9415 33.1824 91.8333 34.8068 91.8333 36.8686C91.8333 38.9304 91.9415 42.1792 92.1577 46.5526C92.374 50.926 92.5362 54.2374 92.5362 56.4241Z" fill="#FDBD13"/>
        <path d="M103.188 36.8679L102.917 33.0569C102.917 30.9327 103.566 29.8706 104.81 29.8706C105.621 29.8706 106.756 30.058 108.162 30.4329C109.568 30.8078 110.271 31.3076 110.271 31.8698C110.271 32.4946 109.838 32.9319 108.919 33.2443C107.513 32.807 106.378 32.4946 105.458 32.3697C105.513 32.9944 105.513 33.6817 105.513 34.3064L105.296 40.7415C105.296 40.7415 105.35 40.9914 105.404 41.4287L107.026 41.3662C108.486 41.3662 109.243 41.8036 109.243 42.6158C109.243 42.9281 109.135 43.2405 108.865 43.4279C108.594 43.6154 108.27 43.8028 107.837 43.8028C107.405 43.8028 106.972 43.8028 106.486 43.7403H105.35C105.458 44.8649 105.458 45.9895 105.458 47.114L105.242 55.236C105.242 56.9228 105.296 57.735 105.35 57.735L108.703 57.6101C109.838 57.6101 110.433 57.9849 110.433 58.7346C110.433 59.172 110.217 59.4843 109.838 59.7342C109.46 59.9217 108.973 60.0466 108.486 60.0466H104.647C104.269 60.0466 103.89 59.9217 103.566 59.6718C103.242 59.4219 103.079 59.047 103.079 58.6722V57.4851L102.809 49.9255L103.188 36.8679Z" fill="#FDBD13"/>
        <path d="M129.79 59.0467V53.2989C129.79 51.9869 129.682 50.0501 129.466 47.4261C129.25 44.8646 129.141 43.1152 129.141 42.2405C129.141 41.3659 129.196 40.3038 129.25 39.0542C129.304 37.8047 129.358 36.8676 129.358 36.3053C129.25 36.6801 128.709 38.7419 127.844 42.4905C125.519 52.1743 123.897 56.985 122.869 56.985C122.275 56.985 121.788 56.7976 121.464 56.4852C121.139 56.1103 120.977 55.673 120.977 55.1107C120.977 53.6737 120.382 50.7998 119.247 46.364C118.111 41.9282 117.138 38.5544 116.381 36.2428C115.786 46.8013 115.516 53.9237 115.516 57.6098L115.57 58.9218C115.57 59.4216 115.462 59.7965 115.246 60.0464C115.029 60.2963 114.705 60.4212 114.272 60.4212C113.84 60.4212 113.461 60.2963 113.191 60.1088C112.921 59.9214 112.758 59.6715 112.758 59.3591C112.758 56.2978 112.975 51.737 113.461 45.6768C113.948 39.6165 114.164 35.0557 114.164 31.9944C114.002 31.7445 113.894 31.4321 113.894 31.0572C113.894 30.6824 114.056 30.4325 114.434 30.3075C114.813 30.1201 115.191 30.0576 115.624 30.0576C116.273 30.0576 117.571 33.0565 119.517 39.0542C121.464 45.052 122.653 49.2379 123.086 51.4871C123.194 51.0497 123.518 49.9252 123.897 48.1758C124.329 46.4265 124.762 44.5522 125.248 42.6779C125.735 40.7411 126.222 38.8043 126.816 36.8676C128.114 32.3693 129.196 30.1201 130.061 30.1201C130.439 30.1201 130.818 30.245 131.196 30.4325C131.575 30.6199 131.737 30.9323 131.737 31.3071C131.737 33.4938 131.845 36.6801 132.007 40.991C132.223 45.3019 132.278 48.4257 132.278 50.3625L132.169 55.1107C132.169 55.4231 132.278 56.4852 132.44 58.297L132.548 59.1717C132.656 59.4841 132.764 59.8589 132.764 60.1713C132.764 60.5462 132.602 60.921 132.332 61.2959C132.061 61.7332 131.683 61.9207 131.196 61.9207C130.277 61.8582 129.79 60.921 129.79 59.0467Z" fill="#FDBD13"/>
        <path d="M141.848 57.1708C141.848 59.1701 141.361 60.1697 140.334 60.1697C139.793 60.1697 139.361 59.8573 139.09 59.17C139.415 58.4828 139.577 55.9838 139.577 51.5479C139.577 50.7357 139.469 49.6111 139.307 48.1117C139.144 46.6123 139.036 45.6127 139.036 44.9879V43.8008C138.982 43.6759 138.496 42.4888 137.63 40.2397C135.63 35.2416 134.603 32.2427 134.603 31.3055V31.0556L135.63 30.3059C136.549 30.3059 137.685 32.6175 138.982 37.2408C139.523 39.2401 139.847 40.2397 139.847 40.3022C139.955 39.9898 140.226 38.8652 140.55 36.9284C141.469 32.0553 142.389 29.6812 143.416 29.6812C143.686 29.6812 143.957 29.7436 144.173 29.9311C144.389 30.1185 144.497 30.3059 144.497 30.6183C144.497 32.1177 144.065 34.2419 143.2 37.1159C142.334 39.9273 141.902 42.114 141.848 43.6134V57.1708Z" fill="#FDBD13"/>
        <path d="M50.1989 12.3176L50.0908 11.193V11.068C50.0908 10.7556 50.1449 10.5057 50.253 10.3183C50.3611 10.1308 50.5774 10.0684 51.01 10.0684C51.4426 10.0684 51.8211 10.1933 52.1995 10.3807C52.578 10.5682 52.9025 10.8806 53.1188 11.2554C53.5513 11.9427 53.7676 12.8174 53.7676 13.6921C53.7676 14.6292 53.7135 15.3165 53.5513 15.8788C53.3891 16.4411 53.1728 16.9409 52.8484 17.3783C53.4432 17.9406 53.7676 18.8153 53.8757 20.1273C53.8757 20.4397 53.8757 20.7521 53.9298 21.1894C53.9298 21.5643 53.8757 22.0016 53.8217 22.3765C53.7676 22.7514 53.6054 23.1262 53.4432 23.5011C53.281 23.876 53.0647 24.1884 52.7943 24.4383C52.2536 25.0006 51.4966 25.2505 50.5774 25.2505C50.253 25.2505 50.0367 25.1255 49.9827 24.8131C49.9286 24.6257 49.8745 24.3758 49.8745 24.0634L50.0908 19.3776L50.1989 12.3176ZM51.1181 22.9388V23.0638V24.0634C51.6048 23.9385 51.9833 23.6261 52.2536 23.1887C52.524 22.6889 52.6321 22.2515 52.6321 21.8767C52.6321 21.5018 52.6321 21.1269 52.6321 20.9395C52.6321 20.6896 52.578 20.4397 52.524 20.0648C52.4699 19.69 52.4158 19.44 52.3077 19.1901C52.0914 18.5654 51.767 18.1905 51.2803 18.128C51.2263 19.0652 51.1722 20.1898 51.1722 21.4393L51.1181 22.9388ZM51.2803 13.4422V16.7535C52.0914 16.7535 52.4699 15.8163 52.4699 13.942C52.4699 12.0677 52.1455 11.1305 51.5507 11.068C51.3344 11.4429 51.2803 12.2551 51.2803 13.4422Z" fill="#FDBD13"/>
        <path d="M55.4444 13.8123L55.3363 11.9379C55.3363 10.8758 55.6607 10.376 56.2555 10.376C56.6339 10.376 57.2287 10.4385 57.8775 10.6259C58.5804 10.8133 58.9048 11.0632 58.9048 11.3132C58.9048 11.6255 58.6885 11.8755 58.256 12.0004C57.5531 11.7505 57.0124 11.6255 56.5799 11.5631C56.5799 11.8755 56.6339 12.1879 56.6339 12.5002L56.5258 15.6866C56.5258 15.6866 56.5258 15.8116 56.5799 16.0615L57.3909 15.999C58.0938 15.999 58.4723 16.1865 58.4723 16.6238C58.4723 16.8113 58.4182 16.9362 58.256 17.0612C58.1479 17.1861 57.9316 17.2486 57.7694 17.2486C57.5531 17.2486 57.3368 17.2486 57.1205 17.1861H56.5258C56.5799 17.7484 56.5799 18.3107 56.5799 18.873L56.4717 22.8717C56.4717 23.6839 56.4717 24.1212 56.5258 24.1212L58.2019 24.0588C58.7967 24.0588 59.067 24.2462 59.067 24.6211C59.067 24.871 58.9589 24.9959 58.7967 25.1209C58.5804 25.2458 58.3641 25.2458 58.1479 25.2458H56.2555C56.0392 25.2458 55.877 25.1834 55.7148 25.0584C55.5526 24.9335 55.4444 24.746 55.4444 24.5586V23.9963L55.2822 20.2476L55.4444 13.8123Z" fill="#FDBD13"/>
        <path d="M60.4728 13.8123L60.3646 11.9379C60.3646 10.8758 60.689 10.376 61.2838 10.376C61.6623 10.376 62.257 10.4385 62.9058 10.6259C63.6087 10.8133 63.9331 11.0632 63.9331 11.3132C63.9331 11.6255 63.7169 11.8755 63.2843 12.0004C62.5814 11.7505 62.0407 11.6255 61.6082 11.5631C61.6082 11.8755 61.6623 12.1879 61.6623 12.5002L61.5541 15.6866C61.5541 15.6866 61.5541 15.8116 61.6082 16.0615L62.4192 15.999C63.1221 15.999 63.5006 16.1865 63.5006 16.6238C63.5006 16.8113 63.4465 16.9362 63.2843 17.0612C63.1762 17.1861 62.9599 17.2486 62.7977 17.2486C62.5814 17.2486 62.3651 17.2486 62.1489 17.1861H61.5541C61.6082 17.7484 61.6082 18.3107 61.6082 18.873L61.5001 22.8717C61.5001 23.6839 61.5001 24.1212 61.5541 24.1212L63.2302 24.0588C63.825 24.0588 64.0953 24.2462 64.0953 24.6211C64.0953 24.871 63.9872 24.9959 63.825 25.1209C63.6087 25.2458 63.3924 25.2458 63.1762 25.2458H61.2838C61.0675 25.2458 60.9053 25.1834 60.7431 25.0584C60.5809 24.9335 60.4728 24.746 60.4728 24.5586V23.9963L60.3105 20.2476L60.4728 13.8123Z" fill="#FDBD13"/>
        <path d="M67.339 24.5623L67.2849 22.8753C67.2849 22.8753 67.2849 22.6254 67.339 22.1255C67.2849 21.9381 67.1768 20.2511 66.9605 17.1269C66.7442 14.0028 66.6902 12.0659 66.6902 11.3786C66.6361 11.3786 66.6361 11.3786 66.582 11.3786C65.3925 11.3786 64.7437 11.1287 64.7437 10.6913C64.7437 10.5663 64.7977 10.4414 64.9599 10.3789C65.1221 10.3164 65.2843 10.2539 65.4466 10.2539L68.4745 10.4414H68.8529C69.3396 10.4414 69.5558 10.6288 69.5558 10.9412C69.5558 11.1287 69.5018 11.2536 69.3396 11.3786C69.1774 11.5036 69.0152 11.566 68.7989 11.566L67.7716 11.4411L67.7175 11.691C67.7175 13.0656 67.8256 15.19 68.096 17.9392C68.3663 20.6884 68.4745 22.8128 68.4745 24.1874C68.4745 24.3749 68.4204 24.4998 68.2582 24.6248C68.096 24.7498 67.9338 24.8123 67.7175 24.8123L67.339 24.5623Z" fill="#FDBD13"/>
        <path d="M71.7193 17.5637V19.9378C71.7193 21.8746 71.8815 23.4366 72.1519 24.5611L71.8815 25.1234H71.2327L70.9623 24.811C70.9623 24.1238 70.9623 23.4366 70.9623 22.5619C70.9623 21.7497 70.9083 20.0003 70.7461 17.3138C70.6379 14.6273 70.5298 12.628 70.5298 11.316C70.5298 10.6288 70.8001 10.2539 71.2868 10.2539C72.0437 10.2539 72.7467 10.4413 73.2333 10.8787C73.774 11.2535 74.0443 11.8783 74.0443 12.628V14.19C74.0443 14.6273 73.9903 15.0022 73.8281 15.377C73.6658 15.7519 73.5036 16.0643 73.2874 16.5016C73.0711 16.8765 72.9629 17.1264 72.9629 17.1264C73.017 17.5012 73.1792 18.1885 73.3955 19.2506C73.8281 21.5622 74.3147 23.1866 74.8554 24.1863C75.0176 24.4987 75.0717 24.6861 75.0717 24.8735C75.0717 25.061 75.0176 25.1859 74.9095 25.3109C74.8013 25.4358 74.6932 25.4983 74.531 25.4983C74.2065 25.4983 73.9362 25.1234 73.6118 24.4362C73.2873 23.7489 73.0711 22.9367 72.9089 22.0621C72.3682 19.438 72.0437 18.0011 71.9356 17.6887H71.7193V17.5637ZM71.8275 11.0661L71.7734 11.3785C71.7734 12.0033 71.7734 12.8779 71.8275 14.0025C71.8815 15.1271 71.8815 15.9393 71.8815 16.5016C72.206 16.3142 72.5304 15.8768 72.7467 15.1271C72.9629 14.3774 73.0711 13.8151 73.0711 13.3778C73.0711 12.9404 73.0711 12.6905 73.017 12.5031C73.017 12.3156 72.9629 12.1282 72.8548 11.8783C72.6926 11.316 72.3141 11.0661 71.8275 11.0661Z" fill="#FDBD13"/>
        <path d="M75.8822 18.1923V17.3801C75.8822 17.3177 75.8822 17.2552 75.8281 17.2552V16.8803C75.8281 14.5687 75.9363 12.9443 76.2066 11.9446C76.4229 11.1324 76.6392 10.6326 76.8554 10.4452C77.0717 10.2578 77.288 10.1328 77.5043 10.1328C79.2345 10.1328 80.424 11.0075 81.0728 12.6944C81.4513 13.694 81.6676 14.8811 81.6676 16.3805V16.5679L81.7217 19.067C81.7217 23.3155 80.7484 25.3772 78.7479 25.3772C77.9368 25.3772 77.288 24.9399 76.8554 24.0027C76.4229 23.128 76.2066 22.3158 76.0985 21.4411C75.9363 20.1916 75.8822 19.1295 75.8822 18.1923ZM77.1799 15.1934L77.0717 17.2552C77.0717 19.3794 77.2339 21.2537 77.6124 22.8156C77.9909 23.7528 78.3153 24.3151 78.6938 24.44C78.9641 24.44 79.2345 24.3151 79.4508 24.1277C79.667 23.9402 79.8293 23.6278 79.9915 23.253C80.0996 22.8781 80.2077 22.5033 80.3159 22.1284C80.37 21.7535 80.4781 21.3162 80.4781 20.8789C80.5322 20.0667 80.5862 19.4419 80.5862 18.8796C80.5862 18.3173 80.5322 17.5051 80.424 16.318C80.3159 15.1934 80.2618 14.3188 80.2618 13.7565V13.3816C80.2618 12.8193 80.0455 12.382 79.7211 11.9446C79.3967 11.5073 78.9641 11.3199 78.4235 11.3199C77.9368 11.3199 77.5583 11.6323 77.3961 12.1946C77.2339 12.6944 77.1799 13.2567 77.1799 13.9439V15.1934Z" fill="#FDBD13"/>
        <path d="M83.0199 18.1923V17.3801C83.0199 17.3177 83.0199 17.2552 82.9658 17.2552V16.8803C82.9658 14.5687 83.128 12.9443 83.3984 11.9446C83.6147 11.1324 83.8309 10.6326 84.0472 10.4452C84.2635 10.2578 84.4798 10.1328 84.696 10.1328C86.4263 10.1328 87.6158 11.0075 88.2646 12.6944C88.6431 13.694 88.8594 14.8811 88.8594 16.3805V16.5679L88.9135 19.067C88.9135 23.3155 87.9402 25.3772 85.9396 25.3772C85.1286 25.3772 84.4798 24.9399 84.0472 24.0027C83.6147 23.128 83.3984 22.3158 83.2902 21.4411C83.074 20.1916 83.0199 19.1295 83.0199 18.1923ZM84.3176 15.1934L84.2094 17.2552C84.2094 19.3794 84.3716 21.2537 84.7501 22.8156C85.1286 23.7528 85.453 24.3151 85.8315 24.44C86.1018 24.44 86.3722 24.3151 86.5885 24.1277C86.8047 23.9402 86.967 23.6278 87.1292 23.253C87.2373 22.8781 87.3454 22.5033 87.4536 22.1284C87.5076 21.7535 87.6158 21.3162 87.6158 20.8789C87.6699 20.0667 87.7239 19.4419 87.7239 18.8796C87.7239 18.3173 87.6699 17.5051 87.5617 16.318C87.4536 15.1934 87.3995 14.3188 87.3995 13.7565V13.3816C87.3995 12.8193 87.1832 12.382 86.8588 11.9446C86.5344 11.5073 86.1018 11.3199 85.5612 11.3199C85.0745 11.3199 84.696 11.6323 84.5338 12.1946C84.3716 12.6944 84.3176 13.2567 84.3176 13.9439V15.1934Z" fill="#FDBD13"/>
        <path d="M92.3741 24.5623L92.32 22.8753C92.32 22.8753 92.32 22.6254 92.3741 22.1255C92.32 21.9381 92.2119 20.2511 91.9956 17.1269C91.8334 14.0028 91.7253 12.0659 91.7253 11.3786C91.6712 11.3786 91.6712 11.3786 91.6171 11.3786C90.4276 11.3786 89.7788 11.1287 89.7788 10.6913C89.7788 10.5663 89.8329 10.4414 89.9951 10.3789C90.1573 10.3164 90.3195 10.2539 90.4817 10.2539L93.5096 10.4414H93.888C94.3747 10.4414 94.5909 10.6288 94.5909 10.9412C94.5909 11.1287 94.5369 11.2536 94.3747 11.3786C94.2125 11.5036 94.0503 11.566 93.834 11.566L92.8067 11.4411L92.7526 11.691C92.7526 13.0656 92.8607 15.19 93.1311 17.9392C93.4014 20.6884 93.5096 22.8128 93.5096 24.1874C93.5096 24.3749 93.4555 24.4998 93.2933 24.6248C93.1311 24.7498 92.9689 24.8123 92.7526 24.8123L92.3741 24.5623Z" fill="#FDBD13"/>
    </symbol>

    <symbol id="tesla" width="272" height="35" viewBox="0 0 272 35">
        <path d="M119.923 34.5139C121.588 29.8394 124.836 27.5432 129.334 27.5432C135.83 27.5432 142.326 27.4612 148.85 27.5979C150.71 27.6252 151.127 27.0785 151.127 25.3289C151.071 20.5451 151.154 20.5451 146.241 20.5451C138.273 20.5451 130.305 20.4631 122.338 20.5998C120.2 20.6271 119.756 19.9984 119.812 18.0302C119.95 12.8909 119.923 7.75171 119.812 2.61249C119.784 0.94498 120.089 0.288911 122.005 0.316247C133.165 0.398256 144.353 0.398258 155.513 0.343585C157.595 0.343585 157.706 0.999653 156.707 2.47581C154.763 5.31879 152.32 7.17765 148.6 7.12298C142.104 7.04097 135.608 7.17766 129.084 7.04098C127.002 6.9863 126.224 7.53302 126.558 9.58325C126.669 10.294 126.669 11.0321 126.558 11.7428C126.308 13.4377 127.03 13.875 128.695 13.8477C137.579 13.7657 146.463 13.875 155.346 13.7657C157.179 13.7384 157.873 14.0937 157.845 16.0893C157.706 21.5839 157.789 27.0785 157.789 32.6004C157.789 33.5572 158.067 34.5959 156.401 34.5959C144.325 34.4866 132.277 34.5139 119.923 34.5139Z" fill="#FDBD13"/>
        <path d="M25.2 20.9287C25.2 24.701 25.1167 28.5007 25.2555 32.2731C25.311 34.0499 24.8391 34.5693 23.0068 34.5693C18.3151 34.5147 18.3151 34.5967 18.3151 29.8675C18.3151 23.1976 18.2318 16.5276 18.3706 9.8576C18.3984 7.8074 17.982 6.90531 15.7055 7.09666C13.3458 7.31535 10.9583 7.15134 8.57081 7.15134C4.62867 7.124 2.21342 4.85511 0.353394 1.76615C-0.312883 0.645372 -0.0630288 0.180664 1.32505 0.180664C14.956 0.208 28.5869 0.208 42.2178 0.180664C43.6614 0.180664 43.7169 0.700046 43.245 1.79349C42.0235 4.63643 38.2479 7.124 34.9998 7.15134C32.6123 7.17868 30.2248 7.31535 27.8651 7.09666C25.5609 6.87798 25.1167 7.83474 25.2 9.8576C25.311 13.548 25.2 17.2383 25.2 20.9287Z" fill="#FDBD13"/>
        <path d="M252.428 13.6313C258.008 13.6313 263.588 13.7133 269.168 13.5766C271.056 13.5219 271.444 14.1507 271.417 15.8455C271.306 21.34 271.333 26.8345 271.417 32.329C271.444 33.7778 271.167 34.3792 269.501 34.3792C264.587 34.4339 264.587 34.5159 264.587 29.6228C264.587 27.1079 264.532 24.5656 264.615 22.0507C264.643 20.9026 264.31 20.4926 263.088 20.4926C255.954 20.5473 248.819 20.5473 241.684 20.4926C240.352 20.4926 240.213 21.0667 240.24 22.1328C240.296 25.5497 240.185 28.9941 240.296 32.411C240.352 33.9692 239.852 34.3519 238.297 34.3792C233.494 34.4339 233.494 34.4886 233.494 29.8141C233.494 25.1397 233.578 20.4379 233.467 15.7635C233.439 14.0687 233.828 13.4673 235.715 13.5219C241.295 13.6586 246.875 13.5766 252.456 13.5766C252.428 13.5766 252.428 13.6039 252.428 13.6313Z" fill="#FDBD13"/>
        <path d="M177.055 17.1833C177.055 12.3173 177.138 7.42405 177 2.5581C176.944 0.781215 177.444 0.289158 179.248 0.316495C183.801 0.398505 183.773 0.289154 183.746 4.88173C183.718 11.7433 183.773 18.6048 183.69 25.439C183.662 27.1065 184.134 27.5712 185.828 27.5712C194.351 27.4892 202.873 27.5986 211.396 27.4892C213.811 27.4619 213.811 28.2547 212.784 29.8949C211.119 32.5739 209.009 34.2961 205.483 34.2414C196.683 34.0774 187.882 34.1047 179.109 34.1594C177.416 34.1594 176.944 33.722 176.972 32.0545C177.111 27.1065 177.055 22.1312 177.055 17.1833Z" fill="#FDBD13"/>
        <path d="M80.3895 13.6298C86.3305 13.6298 92.2714 13.7118 98.2124 13.5751C100.6 13.5204 100.433 14.4226 99.4339 15.8441C97.4073 18.7146 94.881 20.6009 91.0777 20.5462C83.7764 20.4369 76.4473 20.5189 69.1461 20.5189C65.2317 20.5189 62.7609 18.3045 60.9009 15.188C60.0403 13.7665 60.7343 13.5751 62.0391 13.5751C68.1466 13.6571 74.2542 13.6298 80.3895 13.6298Z" fill="#FDBD13"/>
        <path d="M60.5684 27.7911C61.2069 27.3264 61.9564 27.5451 62.6505 27.5451C74.3936 27.5177 86.109 27.5177 97.8521 27.5451C98.6017 27.5451 99.6566 27.0531 100.045 27.9551C100.378 28.7478 99.6844 29.4858 99.1847 30.1145C97.1026 32.8205 94.5485 34.5426 90.8562 34.4606C83.6104 34.3239 76.3647 34.4332 69.1467 34.4059C65.2045 34.4332 61.6788 31.6452 60.5684 27.7911Z" fill="#FDBD13"/>
        <path d="M60.54 0.508962C61.0953 0.481626 61.595 0.399619 62.1224 0.399619C74.1154 0.399619 86.0807 0.39962 98.0736 0.426957C98.7399 0.426957 99.6561 -0.0377625 100.017 0.809664C100.35 1.54774 99.7116 2.20382 99.2952 2.75054C97.2686 5.48418 94.7978 7.34305 91.0777 7.28838C83.7487 7.17903 76.4474 7.26104 69.1184 7.26104C65.1762 7.2337 61.7338 4.58207 60.54 0.508962Z" fill="#FDBD13"/>
        <path d="M272 0.645048C270.667 4.66348 267.419 7.06907 263.338 7.06907C255.926 7.06907 248.541 7.04173 241.129 7.06907C237.325 7.0964 234.855 5.04618 232.884 2.14854C232.245 1.21911 231.912 0.31702 233.716 0.344356C246.32 0.371692 258.952 0.371687 271.555 0.399023C271.722 0.399023 271.861 0.563039 272 0.645048Z" fill="#FDBD13"/>
    </symbol>

    <symbol id="apple" width="61" height="70" viewBox="0 0 61 70">
        <path  d="M50.9524 37.0851C51.0592 47.4762 60.8861 50.9236 61 50.9796C60.9075 51.2109 59.4274 55.9054 55.8126 60.7472C52.6887 64.9302 49.451 69.0923 44.3489 69.1764C39.3323 69.2675 37.717 66.4507 31.9816 66.4507C26.2462 66.4507 24.453 69.0923 19.7068 69.2675C14.7826 69.4426 11.0326 64.7551 7.88025 60.579C1.44753 52.0517 -3.46952 36.4825 3.13398 25.9793C6.40727 20.7592 12.2707 17.459 18.6323 17.3679C23.4711 17.2908 28.0394 20.3598 30.9925 20.3598C33.9527 20.3598 39.503 16.6742 45.338 17.2138C47.7788 17.3049 54.6384 18.1176 59.036 24.0104C58.6945 24.2136 50.8528 28.3896 50.9524 37.0851ZM30.409 16.429C29.8397 12.4842 31.9603 8.37816 34.3868 5.80666C37.0837 2.89882 41.652 0.740722 45.4163 0.600586C45.9002 4.6225 44.1283 8.65843 41.5168 11.5663C38.8982 14.4671 34.6073 16.7233 30.409 16.429Z" fill="#FDBD13"/>

    </symbol>

    <symbol id="amazone" width="234" height="70" viewBox="0 0 234 70">
        <path d="M34.5941 33.5887C33.2864 31.786 31.8837 30.3345 31.8837 27.0101V15.9365C31.8837 11.2543 32.2165 6.94655 28.7215 3.71578C25.9398 1.09371 21.3749 0.180664 17.8561 0.180664C11.0088 0.180664 3.35306 2.68569 1.73633 11.0436C1.5699 11.9332 2.23561 12.4014 2.80622 12.5419L9.82 13.291C10.4619 13.2676 10.9374 12.6355 11.0563 12.0034C11.6507 9.12381 14.0996 7.74254 16.8576 7.74254C18.3316 7.74254 20.0197 8.281 20.8994 9.59204C21.898 11.0435 21.7791 13.0569 21.7791 14.7425V15.6556C17.5946 16.1238 12.15 16.4282 8.22704 18.1372C3.68592 20.0101 0.5 23.9432 0.5 29.7024C0.5 37.077 5.23133 40.776 11.2941 40.776C16.4296 40.776 19.2351 39.582 23.1818 35.6021C24.4895 37.475 24.9174 38.388 27.3188 40.3312C27.8656 40.6121 28.5551 40.5887 29.0306 40.1673H29.0544C30.4809 38.9265 33.0962 36.6556 34.5703 35.4616C35.1647 34.9934 35.0458 34.2208 34.5941 33.5887ZM21.7553 22.8663C21.7553 25.6288 21.8266 27.9466 20.4001 30.4048C19.2589 32.3947 17.4519 33.6355 15.4072 33.6355C12.6493 33.6355 11.0326 31.5753 11.0326 28.485C11.0326 22.4449 16.5485 21.3446 21.7315 21.3446V22.8663H21.7553ZM40.2289 39.067V2.61545C40.2289 1.8897 40.847 1.30441 41.6316 1.30441H48.3601C49.0496 1.32783 49.6202 1.86628 49.6678 2.5218V7.27432H49.7866C51.546 2.66227 54.8508 0.531835 59.2968 0.531835C63.8142 0.531835 66.6435 2.68569 68.6644 7.27432C70.4238 2.66227 74.3705 0.531835 78.6263 0.531835C81.6458 0.531835 84.9506 1.77264 86.9715 4.51177C89.254 7.57866 88.7785 12.0268 88.7785 15.9365V38.9265C88.7785 39.6523 88.1603 40.2375 87.3995 40.2375H80.148C79.4347 40.1673 78.8403 39.6288 78.8403 38.9265V19.6121C78.8403 18.067 78.983 14.2509 78.6263 12.776C78.0795 10.3178 76.4865 9.63887 74.3943 9.63887C72.6587 9.63887 70.828 10.786 70.0909 12.6355C69.3539 14.4616 69.4252 17.5519 69.4252 19.6121V38.9265C69.4252 39.6523 68.807 40.2375 68.0225 40.2375H60.8185C60.0814 40.1673 59.5108 39.6288 59.5108 38.9265V19.6121C59.5108 15.5385 60.1765 9.56863 55.0648 9.56863C49.8817 9.56863 50.0957 15.3981 50.0957 19.6121V38.9265C50.0957 39.6523 49.4776 40.2375 48.7167 40.2375H41.5128C40.8233 40.2141 40.2764 39.7225 40.2289 39.067ZM145.055 54.261C131.503 64.0937 111.912 69.3379 95.0077 69.3379C71.3272 69.3379 50.0006 60.6991 33.857 46.3479C32.5969 45.2242 33.7144 43.679 35.236 44.5687C52.6397 54.5419 74.1803 60.5352 96.4104 60.5352C111.413 60.5352 127.913 57.4917 143.082 51.1472C145.388 50.1874 147.29 52.6222 145.055 54.261ZM162.292 32.4181V37.99C162.292 38.7392 161.46 39.6523 160.557 39.184C153.258 35.4148 143.605 34.9934 135.521 39.2074C134.713 39.6523 133.833 38.786 133.833 38.0135V32.7225C133.833 31.8797 133.833 30.4282 134.713 29.1405L148.954 9.05358H136.567C135.806 9.05358 135.188 8.51512 135.188 7.74254V2.5218C135.188 1.72582 135.783 1.21077 136.52 1.21077H160.224C160.985 1.21077 161.603 1.74923 161.603 2.5218V6.99338C161.603 7.74254 160.961 8.72582 159.82 10.271L147.528 27.5252C152.093 27.4081 156.919 28.087 161.056 30.3813C161.959 30.9198 162.221 31.669 162.292 32.4181ZM116.287 15.6322C112.102 16.1004 106.634 16.4048 102.735 18.0904C98.2173 20.0101 95.0552 23.9432 95.0552 29.7024C95.0552 37.077 99.7628 40.776 105.826 40.776C110.937 40.776 113.767 39.582 117.713 35.6021C119.021 37.475 119.449 38.388 121.85 40.3312C122.397 40.6121 123.087 40.5887 123.562 40.1673C125.012 38.9265 127.628 36.6556 129.078 35.4616C129.649 34.9934 129.577 34.2208 129.102 33.5887C127.794 31.786 126.391 30.3345 126.391 27.0101V15.9365C126.391 11.2543 126.724 6.94655 123.205 3.71578C120.447 1.09371 115.859 0.180664 112.34 0.180664C105.493 0.180664 97.8132 2.68569 96.2202 11.0436C96.0538 11.9332 96.6957 12.4014 97.2901 12.5419L104.28 13.291C104.922 13.2676 105.421 12.6355 105.54 11.98C106.135 9.10041 108.583 7.71913 111.341 7.71913C112.816 7.71913 114.504 8.25759 115.383 9.56863C116.406 11.0201 116.263 13.0335 116.263 14.7191L116.287 15.6322ZM116.287 22.8663C116.287 25.6288 116.358 27.9466 114.932 30.4048C113.79 32.3947 111.96 33.6355 109.962 33.6355C107.181 33.6355 105.564 31.5753 105.564 28.485C105.564 22.4449 111.08 21.3446 116.287 21.3446V22.8663ZM181.978 0.531835C171.541 0.531835 165.764 9.35793 165.764 20.689C165.764 31.9499 171.47 41.0101 181.978 41.0101C192.059 41.0101 198.479 32.184 198.479 21.087C198.502 9.59204 192.701 0.531835 181.978 0.531835ZM181.978 33.5185C176.32 33.5185 176.391 24.0135 176.391 19.5653C176.391 15.1171 176.724 8.00007 182.026 8.00007C184.308 8.00007 185.949 8.98334 186.734 11.5352C187.685 14.4382 187.803 18.1138 187.803 21.2041C187.851 25.8395 187.589 33.5185 181.978 33.5185ZM231.622 4.83953C233.5 7.76596 233.5 12.6589 233.5 16.1941V39.1372C233.405 39.7693 232.811 40.2844 232.097 40.2844H224.869C224.228 40.2141 223.657 39.7459 223.586 39.1372V19.3546C223.586 15.3747 224.061 9.54522 219.092 9.54522C217.333 9.54522 215.716 10.6924 214.931 12.4482C213.909 14.6723 213.766 16.8964 213.766 19.3546V38.9733C213.766 39.6991 213.124 40.3078 212.364 40.3078H205.183C204.446 40.261 203.876 39.6757 203.876 38.9733V2.5218C203.947 1.84287 204.541 1.32783 205.278 1.32783H211.959C212.578 1.35124 213.124 1.77264 213.243 2.35793V7.92983H213.362C215.359 2.94321 218.212 0.57866 223.181 0.57866C226.415 0.531838 229.577 1.70241 231.622 4.83953ZM156.444 43.5854C157.918 45.4115 156.063 57.9365 148.788 63.9064C147.67 64.8195 146.601 64.3278 147.1 63.1105C148.74 59.1071 152.402 50.0937 150.666 47.9165C148.954 45.7392 139.23 46.8864 134.879 47.4014C133.548 47.5653 133.358 46.4181 134.546 45.5987C142.273 40.2375 154.969 41.7827 156.444 43.5854Z" fill="#FDBD13"/>
    </symbol>
   


</svg>