<svg width="790" height="62" viewBox="0 0 790 62" fill="none" xmlns="http://www.w3.org/2000/svg">
<path d="M57.7188 13.0234L58.4124 13.7438L58.4192 13.7372L58.4259 13.7305L57.7188 13.0234ZM37.6406 14.0391V13.0391H36.6406V14.0391H37.6406ZM36.5469 57.9844L37.2405 58.7047L37.241 58.7042L36.5469 57.9844ZM23.9688 57.9844L23.2616 58.6915L23.2747 58.7046L23.2883 58.7172L23.9688 57.9844ZM22.9141 14.0391H23.9141V13.0391H22.9141V14.0391ZM2.83594 13.0234L2.12883 13.7305L2.1355 13.7372L2.1423 13.7438L2.83594 13.0234ZM2.78125 10.3672V6.69531H0.78125V10.3672H2.78125ZM2.78125 6.69531C2.78125 5.87118 3.04222 5.24699 3.54304 4.74617L2.12883 3.33195C1.2234 4.23738 0.78125 5.38402 0.78125 6.69531H2.78125ZM3.54304 4.74617C4.04387 4.24535 4.66806 3.98438 5.49219 3.98438V1.98438C4.1809 1.98438 3.03426 2.42653 2.12883 3.33195L3.54304 4.74617ZM5.49219 3.98438H55.0625V1.98438H5.49219V3.98438ZM55.0625 3.98438C55.8866 3.98438 56.5108 4.24535 57.0116 4.74617L58.4259 3.33195C57.5204 2.42653 56.3738 1.98438 55.0625 1.98438V3.98438ZM57.0116 4.74617C57.5125 5.24699 57.7734 5.87118 57.7734 6.69531H59.7734C59.7734 5.38402 59.3313 4.23738 58.4259 3.33195L57.0116 4.74617ZM57.7734 6.69531V10.3672H59.7734V6.69531H57.7734ZM57.7734 10.3672C57.7734 11.1913 57.5125 11.8155 57.0116 12.3163L58.4259 13.7305C59.3313 12.8251 59.7734 11.6785 59.7734 10.3672H57.7734ZM57.0251 12.3031C56.5266 12.7832 55.8981 13.0391 55.0625 13.0391V15.0391C56.3623 15.0391 57.5046 14.6179 58.4124 13.7438L57.0251 12.3031ZM55.0625 13.0391H37.6406V15.0391H55.0625V13.0391ZM36.6406 14.0391V55.4062H38.6406V14.0391H36.6406ZM36.6406 55.4062C36.6406 56.1512 36.3859 56.7504 35.8527 57.2645L37.241 58.7042C38.1662 57.8121 38.6406 56.6926 38.6406 55.4062H36.6406ZM35.8532 57.2641C35.3446 57.7538 34.7373 58 33.9688 58V60C35.2315 60 36.3429 59.5691 37.2405 58.7047L35.8532 57.2641ZM33.9688 58H26.5859V60H33.9688V58ZM26.5859 58C25.8169 58 25.1892 57.753 24.6492 57.2516L23.2883 58.7172C24.2066 59.5699 25.3237 60 26.5859 60V58ZM24.6759 57.2773C24.1647 56.7661 23.9141 56.163 23.9141 55.4062H21.9141C21.9141 56.6807 22.3665 57.7964 23.2616 58.6915L24.6759 57.2773ZM23.9141 55.4062V14.0391H21.9141V55.4062H23.9141ZM22.9141 13.0391H5.49219V15.0391H22.9141V13.0391ZM5.49219 13.0391C4.65661 13.0391 4.02808 12.7832 3.52958 12.3031L2.1423 13.7438C3.05004 14.6179 4.19234 15.0391 5.49219 15.0391V13.0391ZM3.54304 12.3163C3.04222 11.8155 2.78125 11.1913 2.78125 10.3672H0.78125C0.78125 11.6785 1.2234 12.8251 2.12883 13.7305L3.54304 12.3163ZM86.3063 46.5391V45.5391H85.3063V46.5391H86.3063ZM85.2125 57.9453L84.5054 57.2382L85.2125 57.9453ZM72.6734 57.9453L71.9663 58.6524L71.9728 58.6588L71.9793 58.6652L72.6734 57.9453ZM86.3063 35.4844H85.3063V36.4844H86.3063V35.4844ZM110.525 33.2969L111.066 34.1378L111.073 34.1333L110.525 33.2969ZM110.525 16.2656L109.977 17.1021L109.984 17.1065L110.525 16.2656ZM86.3063 14.0391V13.0391H85.3063V14.0391H86.3063ZM72.5797 55.3281V6.69531H70.5797V55.3281H72.5797ZM72.5797 6.69531C72.5797 5.93785 72.8314 5.31449 73.3542 4.77226L71.9145 3.38399C71.0312 4.30009 70.5797 5.42153 70.5797 6.69531H72.5797ZM73.3542 4.77226C73.8683 4.23913 74.4676 3.98438 75.2125 3.98438V1.98438C73.9262 1.98438 72.8067 2.45879 71.9145 3.38399L73.3542 4.77226ZM75.2125 3.98438H105.017V1.98438H75.2125V3.98438ZM105.017 3.98438C112.76 3.98438 118.38 5.77135 122.064 9.16868C125.732 12.5519 127.65 17.6915 127.65 24.7812H129.65C129.65 17.3398 127.629 11.5809 123.42 7.69851C119.226 3.83022 113.03 1.98438 105.017 1.98438V3.98438ZM127.65 24.7812C127.65 31.8575 125.732 36.9871 122.064 40.3639C118.381 43.7552 112.76 45.5391 105.017 45.5391V47.5391C113.029 47.5391 119.225 45.6967 123.419 41.8353C127.629 37.9595 129.65 32.2102 129.65 24.7812H127.65ZM105.017 45.5391H86.3063V47.5391H105.017V45.5391ZM85.3063 46.5391V55.3281H87.3063V46.5391H85.3063ZM85.3063 55.3281C85.3063 56.074 85.0503 56.6933 84.5054 57.2382L85.9196 58.6524C86.8331 57.7389 87.3063 56.6135 87.3063 55.3281H85.3063ZM84.5054 57.2382C83.9943 57.7494 83.3911 58 82.6344 58V60C83.9089 60 85.0245 59.5475 85.9196 58.6524L84.5054 57.2382ZM82.6344 58H75.2906V60H82.6344V58ZM75.2906 58C74.5332 58 73.9098 57.7483 73.3676 57.2255L71.9793 58.6652C72.8954 59.5485 74.0168 60 75.2906 60V58ZM73.3805 57.2382C72.8357 56.6933 72.5797 56.074 72.5797 55.3281H70.5797C70.5797 56.6135 71.0529 57.7389 71.9663 58.6524L73.3805 57.2382ZM86.3063 36.4844H100.564V34.4844H86.3063V36.4844ZM100.564 36.4844C105.023 36.4844 108.567 35.7462 111.066 34.1377L109.984 32.456C107.951 33.7642 104.856 34.4844 100.564 34.4844V36.4844ZM111.073 34.1333C113.751 32.3786 114.923 29.1175 114.923 24.7812H112.923C112.923 28.8304 111.83 31.2464 109.977 32.4604L111.073 34.1333ZM114.923 24.7812C114.923 20.4238 113.754 17.1545 111.066 15.4248L109.984 17.1065C111.828 18.2934 112.923 20.7012 112.923 24.7812H114.923ZM111.073 15.4292C108.573 13.791 105.025 13.0391 100.564 13.0391V15.0391C104.853 15.0391 107.946 15.7715 109.977 17.1021L111.073 15.4292ZM100.564 13.0391H86.3063V15.0391H100.564V13.0391ZM85.3063 14.0391V35.4844H87.3063V14.0391H85.3063ZM155.441 4.03906L154.734 4.74617L154.74 4.7526L154.746 4.75891L155.441 4.03906ZM156.534 45.7188H155.534V49.495L157.403 46.2137L156.534 45.7188ZM178.761 6.69531L177.9 6.18733L177.896 6.19383L177.892 6.20039L178.761 6.69531ZM198.175 57.9453L198.869 58.6652L198.876 58.6588L198.882 58.6524L198.175 57.9453ZM186.066 57.9453L185.346 58.6395L185.358 58.6525L185.371 58.6652L186.066 57.9453ZM185.011 19.0781H186.011V15.2606L184.139 18.5879L185.011 19.0781ZM164.62 55.3281L165.482 55.8361L165.487 55.8273L165.492 55.8184L164.62 55.3281ZM162.081 57.9453L162.622 58.7865L162.629 58.782L162.636 58.7774L162.081 57.9453ZM143.37 57.9453L142.663 58.6524L142.67 58.6588L142.676 58.6652L143.37 57.9453ZM143.277 55.3281V6.69531H141.277V55.3281H143.277ZM143.277 6.69531C143.277 5.87118 143.538 5.24699 144.038 4.74617L142.624 3.33195C141.719 4.23738 141.277 5.38402 141.277 6.69531H143.277ZM144.038 4.74617C144.539 4.24535 145.163 3.98438 145.988 3.98438V1.98438C144.676 1.98438 143.53 2.42653 142.624 3.33195L144.038 4.74617ZM145.988 3.98438H152.863V1.98438H145.988V3.98438ZM152.863 3.98438C153.619 3.98438 154.222 4.23503 154.734 4.74617L156.148 3.33195C155.253 2.43685 154.137 1.98438 152.863 1.98438V3.98438ZM154.746 4.75891C155.28 5.27299 155.534 5.87227 155.534 6.61719H157.534C157.534 5.33085 157.06 4.21138 156.135 3.31922L154.746 4.75891ZM155.534 6.61719V45.7188H157.534V6.61719H155.534ZM157.403 46.2137L179.63 7.19023L177.892 6.20039L155.665 45.2238L157.403 46.2137ZM179.622 7.2033C180.143 6.32024 180.861 5.55107 181.795 4.89736L180.648 3.25889C179.499 4.06352 178.577 5.03913 177.9 6.18733L179.622 7.2033ZM181.795 4.89736C182.739 4.23664 183.504 3.98438 184.113 3.98438V1.98438C182.95 1.98438 181.788 2.46127 180.648 3.25889L181.795 4.89736ZM184.113 3.98438H195.636V1.98438H184.113V3.98438ZM195.636 3.98438C196.381 3.98438 196.98 4.23913 197.494 4.77226L198.934 3.38399C198.042 2.45879 196.922 1.98438 195.636 1.98438V3.98438ZM197.494 4.77226C198.017 5.31449 198.269 5.93785 198.269 6.69531H200.269C200.269 5.42153 199.817 4.30009 198.934 3.38399L197.494 4.77226ZM198.269 6.69531V55.3281H200.269V6.69531H198.269ZM198.269 55.3281C198.269 56.074 198.013 56.6933 197.468 57.2382L198.882 58.6524C199.796 57.7389 200.269 56.6135 200.269 55.3281H198.269ZM197.481 57.2255C196.939 57.7483 196.315 58 195.558 58V60C196.832 60 197.953 59.5485 198.869 58.6652L197.481 57.2255ZM195.558 58H188.683V60H195.558V58ZM188.683 58C187.925 58 187.302 57.7483 186.76 57.2255L185.371 58.6652C186.288 59.5485 187.409 60 188.683 60V58ZM186.785 57.2512C186.263 56.7089 186.011 56.0856 186.011 55.3281H184.011C184.011 56.6019 184.462 57.7234 185.346 58.6395L186.785 57.2512ZM186.011 55.3281V19.0781H184.011V55.3281H186.011ZM184.139 18.5879L163.749 54.8379L165.492 55.8184L185.883 19.5684L184.139 18.5879ZM163.759 54.8201C163.245 55.6918 162.51 56.458 161.527 57.1133L162.636 58.7774C163.84 57.9743 164.798 56.9957 165.482 55.8361L163.759 54.8201ZM161.54 57.1041C160.563 57.7323 159.694 58 158.917 58V60C160.172 60 161.412 59.5645 162.622 58.7865L161.54 57.1041ZM158.917 58H145.988V60H158.917V58ZM145.988 58C145.23 58 144.607 57.7483 144.064 57.2255L142.676 58.6652C143.592 59.5485 144.714 60 145.988 60V58ZM144.077 57.2382C143.533 56.6933 143.277 56.074 143.277 55.3281H141.277C141.277 56.6135 141.75 57.7389 142.663 58.6524L144.077 57.2382ZM251.717 3.41406L251.01 2.70695L251.004 2.71275L250.999 2.71864L251.717 3.41406ZM263.163 3.41406L262.455 4.12117L262.461 4.12696L262.467 4.13266L263.163 3.41406ZM263.163 11.3047L262.455 10.5976L262.45 10.6034L262.444 10.6093L263.163 11.3047ZM251.366 17.8281L250.679 17.1011L250.669 17.1109L250.659 17.121L251.366 17.8281ZM263.553 17.8672L262.826 18.5538L262.836 18.5642L262.846 18.5743L263.553 17.8672ZM263.514 58.3359L262.827 57.6089L262.817 57.6187L262.807 57.6288L263.514 58.3359ZM251.545 8.02344V6.69531H249.545V8.02344H251.545ZM251.545 6.69531C251.545 5.51194 251.874 4.68961 252.436 4.10948L250.999 2.71864C249.997 3.7531 249.545 5.11827 249.545 6.69531H251.545ZM252.424 4.12117C253.002 3.54299 253.831 3.20312 255.038 3.20312V1.20312C253.431 1.20312 252.046 1.67055 251.01 2.70695L252.424 4.12117ZM255.038 3.20312H259.881V1.20312H255.038V3.20312ZM259.881 3.20312C261.055 3.20312 261.874 3.53947 262.455 4.12117L263.87 2.70695C262.837 1.67407 261.467 1.20312 259.881 1.20312V3.20312ZM262.467 4.13266C263.033 4.68052 263.373 5.48759 263.373 6.69531H265.373C265.373 5.09054 264.906 3.71011 263.858 2.69546L262.467 4.13266ZM263.373 6.69531V8.02344H265.373V6.69531H263.373ZM263.373 8.02344C263.373 9.1976 263.037 10.0159 262.455 10.5976L263.87 12.0118C264.902 10.9789 265.373 9.6097 265.373 8.02344H263.373ZM262.444 10.6093C261.896 11.1754 261.089 11.5156 259.881 11.5156V13.5156C261.486 13.5156 262.866 13.0486 263.881 12.0001L262.444 10.6093ZM259.881 11.5156H255.038V13.5156H259.881V11.5156ZM255.038 11.5156C253.863 11.5156 253.045 11.1793 252.463 10.5976L251.049 12.0118C252.082 13.0447 253.451 13.5156 255.038 13.5156V11.5156ZM252.463 10.5976C251.882 10.0159 251.545 9.1976 251.545 8.02344H249.545C249.545 9.6097 250.016 10.9789 251.049 12.0118L252.463 10.5976ZM251.702 56.6172V19.5469H249.702V56.6172H251.702ZM251.702 19.5469C251.702 19.0733 251.841 18.7666 252.073 18.5352L250.659 17.121C250.005 17.775 249.702 18.6142 249.702 19.5469H251.702ZM252.052 18.5551C252.325 18.2972 252.649 18.1641 253.084 18.1641V16.1641C252.166 16.1641 251.343 16.4736 250.679 17.1011L252.052 18.5551ZM253.084 18.1641H261.834V16.1641H253.084V18.1641ZM261.834 18.1641C262.29 18.1641 262.591 18.3044 262.826 18.5538L264.28 17.1806C263.63 16.4925 262.785 16.1641 261.834 16.1641V18.1641ZM262.846 18.5743C263.085 18.8133 263.217 19.1112 263.217 19.5469H265.217C265.217 18.6284 264.907 17.8065 264.26 17.1601L262.846 18.5743ZM263.217 19.5469V56.6172H265.217V19.5469H263.217ZM263.217 56.6172C263.217 57.0729 263.077 57.3733 262.827 57.6089L264.201 59.063C264.889 58.4131 265.217 57.5678 265.217 56.6172H263.217ZM262.807 57.6288C262.568 57.8678 262.27 58 261.834 58V60C262.753 60 263.575 59.6895 264.221 59.043L262.807 57.6288ZM261.834 58H253.084V60H261.834V58ZM253.084 58C252.611 58 252.304 57.8602 252.073 57.6288L250.659 59.043C251.313 59.6971 252.152 60 253.084 60V58ZM252.073 57.6288C251.841 57.3974 251.702 57.0907 251.702 56.6172H249.702C249.702 57.5499 250.005 58.389 250.659 59.043L252.073 57.6288ZM291.828 43.7266L290.923 44.1508L290.924 44.1532L291.828 43.7266ZM295.109 47.0469L294.633 47.9259L295.109 47.0469ZM299.758 35.2109L299.038 35.9051L299.051 35.9182L299.064 35.9308L299.758 35.2109ZM299.719 26.8516L298.987 26.1701L298.986 26.1711L299.719 26.8516ZM317.922 24.3125L317.388 23.467L317.381 23.4713L317.922 24.3125ZM317.922 15.1328L317.381 15.974L317.388 15.9783L317.922 15.1328ZM292.766 18.5312L291.873 18.0811L291.868 18.0902L291.864 18.0995L292.766 18.5312ZM285.578 6.96875L286.113 7.81343L286.117 7.8112L285.578 6.96875ZM329.484 30.9922L328.879 30.1964L327.723 31.0762L328.957 31.842L329.484 30.9922ZM329.992 55.3281L330.57 56.1441L330.571 56.1434L329.992 55.3281ZM284.25 54.9766L283.702 55.8131L283.706 55.8153L284.25 54.9766ZM278.57 43.7266C278.57 42.3857 278.96 41.6355 279.534 41.209L278.341 39.6035C277.092 40.5312 276.57 41.9945 276.57 43.7266H278.57ZM279.534 41.209C280.328 40.6191 281.009 40.3906 281.594 40.3906V38.3906C280.46 38.3906 279.37 38.8393 278.341 39.6035L279.534 41.209ZM281.594 40.3906H286.203V38.3906H281.594V40.3906ZM286.203 40.3906C288.079 40.3906 289.668 41.4732 290.923 44.1508L292.734 43.3023C291.28 40.1987 289.119 38.3906 286.203 38.3906V40.3906ZM290.924 44.1532C291.678 45.7531 292.937 47.0065 294.633 47.9259L295.586 46.1678C294.208 45.4206 293.28 44.4605 292.733 43.2999L290.924 44.1532ZM294.633 47.9259C296.326 48.8444 298.198 49.2969 300.227 49.2969V47.2969C298.506 47.2969 296.966 46.9161 295.586 46.1678L294.633 47.9259ZM300.227 49.2969H312.453V47.2969H300.227V49.2969ZM312.453 49.2969C315.366 49.2969 317.719 48.8353 319.364 47.7688L318.276 46.0905C317.109 46.847 315.218 47.2969 312.453 47.2969V49.2969ZM319.364 47.7688C321.14 46.6177 321.93 44.6915 321.93 42.2812H319.93C319.93 44.246 319.313 45.4188 318.276 46.0905L319.364 47.7688ZM321.93 42.2812C321.93 39.871 321.14 37.9448 319.364 36.7937L318.276 38.472C319.313 39.1437 319.93 40.3165 319.93 42.2812H321.93ZM319.364 36.7937C317.719 35.7272 315.366 35.2656 312.453 35.2656V37.2656C315.218 37.2656 317.109 37.7155 318.276 38.472L319.364 36.7937ZM312.453 35.2656H302.375V37.2656H312.453V35.2656ZM302.375 35.2656C301.618 35.2656 300.994 35.014 300.452 34.4911L299.064 35.9308C299.98 36.8142 301.101 37.2656 302.375 37.2656V35.2656ZM300.478 34.5168C299.955 33.9746 299.703 33.3512 299.703 32.5938H297.703C297.703 33.8675 298.155 34.989 299.038 35.9051L300.478 34.5168ZM299.703 32.5938V29.3906H297.703V32.5938H299.703ZM299.703 29.3906C299.703 28.6885 299.94 28.0829 300.452 27.532L298.986 26.1711C298.143 27.0786 297.703 28.1657 297.703 29.3906H299.703ZM300.451 27.533C300.98 26.9648 301.554 26.7188 302.219 26.7188V24.7188C300.956 24.7188 299.864 25.2279 298.987 26.1701L300.451 27.533ZM302.219 26.7188H311.008V24.7188H302.219V26.7188ZM311.008 26.7188C314.216 26.7188 316.758 26.2494 318.463 25.1537L317.381 23.4713C316.169 24.2506 314.102 24.7188 311.008 24.7188V26.7188ZM318.456 25.158C320.292 23.9982 321.148 22.1145 321.148 19.7422H319.148C319.148 21.5887 318.52 22.7518 317.388 23.467L318.456 25.158ZM321.148 19.7422C321.148 17.3494 320.296 15.4496 318.456 14.2873L317.388 15.9783C318.516 16.691 319.148 17.8641 319.148 19.7422H321.148ZM318.463 14.2916C316.758 13.1959 314.216 12.7266 311.008 12.7266V14.7266C314.102 14.7266 316.169 15.1948 317.381 15.974L318.463 14.2916ZM311.008 12.7266H301.516V14.7266H311.008V12.7266ZM301.516 12.7266C299.282 12.7266 297.323 13.1505 295.683 14.0512C294.033 14.9569 292.763 16.3139 291.873 18.0811L293.659 18.9814C294.382 17.5455 295.378 16.5001 296.645 15.8043C297.922 15.1034 299.53 14.7266 301.516 14.7266V12.7266ZM291.864 18.0995C291.333 19.2083 290.701 19.9744 289.997 20.4645C289.302 20.9487 288.48 21.2031 287.492 21.2031V23.2031C288.848 23.2031 290.077 22.8456 291.14 22.1058C292.194 21.3719 293.027 20.3021 293.668 18.963L291.864 18.0995ZM287.492 21.2031H282.844V23.2031H287.492V21.2031ZM282.844 21.2031C281.873 21.2031 281.202 20.8678 280.706 20.2251L279.122 21.4467C280.033 22.6269 281.314 23.2031 282.844 23.2031V21.2031ZM280.706 20.2251C280.126 19.4741 279.859 18.6962 279.859 17.8672H277.859C277.859 19.1736 278.295 20.3749 279.122 21.4467L280.706 20.2251ZM279.859 17.8672C279.859 13.8546 281.857 10.5107 286.113 7.81342L285.043 6.12408C280.341 9.10389 277.859 13.0257 277.859 17.8672H279.859ZM286.117 7.8112C290.438 5.04778 295.108 3.67188 300.148 3.67188V1.67188C294.72 1.67188 289.677 3.16055 285.039 6.1263L286.117 7.8112ZM300.148 3.67188H312.141V1.67188H300.148V3.67188ZM312.141 3.67188C319.622 3.67188 325.051 5.08451 328.59 7.74823C332.076 10.3717 333.875 14.3208 333.875 19.7812H335.875C335.875 13.8354 333.885 9.22989 329.793 6.15021C325.754 3.1108 319.815 1.67188 312.141 1.67188V3.67188ZM333.875 19.7812C333.875 24.2266 332.21 27.6618 328.879 30.1964L330.09 31.788C333.946 28.8539 335.875 24.8151 335.875 19.7812H333.875ZM328.957 31.842C332.768 34.2057 334.656 37.6418 334.656 42.2812H336.656C336.656 36.9728 334.43 32.8828 330.011 30.1424L328.957 31.842ZM334.656 42.2812C334.656 48.08 332.849 52.0725 329.413 54.5129L330.571 56.1434C334.688 53.2191 336.656 48.5138 336.656 42.2812H334.656ZM329.414 54.5121C325.901 57.0005 320.747 58.3125 313.82 58.3125V60.3125C320.956 60.3125 326.583 58.9683 330.57 56.1441L329.414 54.5121ZM313.82 58.3125H298.859V60.3125H313.82V58.3125ZM298.859 58.3125C293.767 58.3125 289.086 56.9237 284.794 54.1378L283.706 55.8153C288.32 58.8107 293.379 60.3125 298.859 60.3125V58.3125ZM284.798 54.14C280.574 51.3734 278.57 47.9138 278.57 43.7266H276.57C276.57 48.706 279.02 52.7464 283.702 55.8131L284.798 54.14ZM350.455 3.41406L349.748 2.70695L349.742 2.71275L349.736 2.71864L350.455 3.41406ZM361.9 3.41406L361.193 4.12117L361.199 4.12696L361.205 4.13266L361.9 3.41406ZM361.9 11.3047L361.193 10.5976L361.187 10.6034L361.181 10.6093L361.9 11.3047ZM350.103 17.8281L349.417 17.1011L349.406 17.1109L349.396 17.121L350.103 17.8281ZM362.291 17.8672L361.564 18.5538L361.573 18.5642L361.584 18.5743L362.291 17.8672ZM362.252 58.3359L361.565 57.6089L361.555 57.6187L361.544 57.6288L362.252 58.3359ZM350.283 8.02344V6.69531H348.283V8.02344H350.283ZM350.283 6.69531C350.283 5.51194 350.612 4.68961 351.173 4.10948L349.736 2.71864C348.735 3.7531 348.283 5.11827 348.283 6.69531H350.283ZM351.162 4.12117C351.74 3.54299 352.569 3.20312 353.775 3.20312V1.20312C352.169 1.20312 350.784 1.67055 349.748 2.70695L351.162 4.12117ZM353.775 3.20312H358.619V1.20312H353.775V3.20312ZM358.619 3.20312C359.793 3.20312 360.611 3.53947 361.193 4.12117L362.607 2.70695C361.574 1.67407 360.205 1.20312 358.619 1.20312V3.20312ZM361.205 4.13266C361.771 4.68052 362.111 5.48759 362.111 6.69531H364.111C364.111 5.09054 363.644 3.71011 362.595 2.69546L361.205 4.13266ZM362.111 6.69531V8.02344H364.111V6.69531H362.111ZM362.111 8.02344C362.111 9.1976 361.775 10.0159 361.193 10.5976L362.607 12.0118C363.64 10.9789 364.111 9.6097 364.111 8.02344H362.111ZM361.181 10.6093C360.634 11.1754 359.826 11.5156 358.619 11.5156V13.5156C360.224 13.5156 361.604 13.0486 362.619 12.0001L361.181 10.6093ZM358.619 11.5156H353.775V13.5156H358.619V11.5156ZM353.775 11.5156C352.601 11.5156 351.783 11.1793 351.201 10.5976L349.787 12.0118C350.82 13.0447 352.189 13.5156 353.775 13.5156V11.5156ZM351.201 10.5976C350.619 10.0159 350.283 9.1976 350.283 8.02344H348.283C348.283 9.6097 348.754 10.9789 349.787 12.0118L351.201 10.5976ZM350.439 56.6172V19.5469H348.439V56.6172H350.439ZM350.439 19.5469C350.439 19.0733 350.579 18.7666 350.81 18.5352L349.396 17.121C348.742 17.775 348.439 18.6142 348.439 19.5469H350.439ZM350.79 18.5551C351.063 18.2972 351.386 18.1641 351.822 18.1641V16.1641C350.904 16.1641 350.081 16.4736 349.417 17.1011L350.79 18.5551ZM351.822 18.1641H360.572V16.1641H351.822V18.1641ZM360.572 18.1641C361.028 18.1641 361.328 18.3044 361.564 18.5538L363.018 17.1806C362.368 16.4925 361.522 16.1641 360.572 16.1641V18.1641ZM361.584 18.5743C361.822 18.8133 361.955 19.1112 361.955 19.5469H363.955C363.955 18.6284 363.644 17.8065 362.998 17.1601L361.584 18.5743ZM361.955 19.5469V56.6172H363.955V19.5469H361.955ZM361.955 56.6172C361.955 57.0729 361.814 57.3733 361.565 57.6089L362.938 59.063C363.626 58.4131 363.955 57.5678 363.955 56.6172H361.955ZM361.544 57.6288C361.305 57.8678 361.008 58 360.572 58V60C361.49 60 362.312 59.6895 362.959 59.043L361.544 57.6288ZM360.572 58H351.822V60H360.572V58ZM351.822 58C351.348 58 351.042 57.8602 350.81 57.6288L349.396 59.043C350.05 59.6971 350.889 60 351.822 60V58ZM350.81 57.6288C350.579 57.3974 350.439 57.0907 350.439 56.6172H348.439C348.439 57.5499 348.742 58.389 349.396 59.043L350.81 57.6288ZM458.059 57.9453L457.531 58.7944L457.538 58.7986L457.545 58.8028L458.059 57.9453ZM455.325 55.3281L454.479 55.8617L454.483 55.8678L455.325 55.3281ZM448.45 44.4297L447.599 44.9552L447.604 44.9632L448.45 44.4297ZM443.489 38.4531L442.858 39.2293L442.866 39.2352L443.489 38.4531ZM429.075 36.4219V35.4219H428.075V36.4219H429.075ZM427.981 57.9844L428.675 58.7047L428.675 58.7042L427.981 57.9844ZM415.442 57.9062L414.723 58.6008L414.729 58.6072L414.735 58.6134L415.442 57.9062ZM427.981 4.03906L427.249 4.72048L427.256 4.72713L427.262 4.73366L427.981 4.03906ZM429.075 25.4062H428.075V26.4062H429.075V25.4062ZM443.489 23.5312L442.907 22.7183L442.901 22.7225L443.489 23.5312ZM448.45 17.4766L447.578 16.9869L447.578 16.9875L448.45 17.4766ZM454.505 6.69531L455.377 7.18499L455.38 7.17863L454.505 6.69531ZM460.13 2.90625V1.90619L460.119 1.90631L460.13 2.90625ZM470.364 6.69531L471.24 7.17868L471.243 7.17161L471.247 7.16447L470.364 6.69531ZM461.888 22.0469L461.012 21.5635L461.01 21.5673L461.888 22.0469ZM457.747 27.5938L457.058 26.8684L457.052 26.8743L457.747 27.5938ZM451.809 30.6797L451.572 29.7083L451.602 31.6579L451.809 30.6797ZM457.083 33.9219L456.376 34.629L456.381 34.6341L457.083 33.9219ZM461.888 39.7812L462.734 39.2493L462.729 39.2415L462.724 39.2337L461.888 39.7812ZM471.653 55.3281L472.516 54.8224L472.508 54.8092L472.5 54.7962L471.653 55.3281ZM471.317 57.2812C471.317 57.6522 471.215 57.7629 471.163 57.8069C471.079 57.878 470.846 58 470.286 58V60C471.08 60 471.862 59.8355 472.455 59.3337C473.08 58.8048 473.317 58.0561 473.317 57.2812H471.317ZM470.286 58H461.341V60H470.286V58ZM461.341 58C460.559 58 459.642 57.7289 458.574 57.0878L457.545 58.8028C458.82 59.568 460.091 60 461.341 60V58ZM458.588 57.0963C457.524 56.4343 456.727 55.6621 456.167 54.7885L454.483 55.8678C455.225 57.0254 456.251 57.998 457.531 58.7944L458.588 57.0963ZM456.171 54.7946L449.296 43.8961L447.604 44.9632L454.479 55.8617L456.171 54.7946ZM449.301 43.9042C447.625 41.1913 445.9 39.096 444.112 37.6711L442.866 39.2352C444.411 40.4665 445.994 42.3556 447.599 44.9552L449.301 43.9042ZM444.12 37.677C442.258 36.1645 440.024 35.4219 437.473 35.4219V37.4219C439.61 37.4219 441.387 38.0334 442.858 39.2292L444.12 37.677ZM437.473 35.4219H429.075V37.4219H437.473V35.4219ZM428.075 36.4219V55.4062H430.075V36.4219H428.075ZM428.075 55.4062C428.075 56.1512 427.82 56.7504 427.287 57.2645L428.675 58.7042C429.601 57.8121 430.075 56.6926 430.075 55.4062H428.075ZM427.288 57.2641C426.779 57.7538 426.172 58 425.403 58V60C426.666 60 427.777 59.5691 428.675 58.7047L427.288 57.2641ZM425.403 58H418.059V60H425.403V58ZM418.059 58C417.314 58 416.694 57.744 416.149 57.1991L414.735 58.6134C415.649 59.5268 416.774 60 418.059 60V58ZM416.162 57.2117C415.606 56.6359 415.348 55.997 415.348 55.25H413.348C413.348 56.5343 413.82 57.6662 414.723 58.6008L416.162 57.2117ZM415.348 55.25V6.69531H413.348V55.25H415.348ZM415.348 6.69531C415.348 5.94835 415.606 5.3094 416.162 4.73366L414.723 3.34447C413.82 4.27914 413.348 5.41102 413.348 6.69531H415.348ZM416.162 4.73366C416.709 4.16625 417.325 3.90625 418.059 3.90625V1.90625C416.762 1.90625 415.633 2.40146 414.723 3.34447L416.162 4.73366ZM418.059 3.90625H425.403V1.90625H418.059V3.90625ZM425.403 3.90625C426.136 3.90625 426.732 4.16477 427.249 4.72048L428.713 3.35764C427.824 2.40294 426.701 1.90625 425.403 1.90625V3.90625ZM427.262 4.73366C427.818 5.3094 428.075 5.94835 428.075 6.69531H430.075C430.075 5.41102 429.603 4.27914 428.701 3.34447L427.262 4.73366ZM428.075 6.69531V25.4062H430.075V6.69531H428.075ZM429.075 26.4062H437.473V24.4062H429.075V26.4062ZM437.473 26.4062C439.959 26.4062 442.174 25.7242 444.077 24.34L442.901 22.7225C441.367 23.8383 439.571 24.4062 437.473 24.4062V26.4062ZM444.071 24.3442C445.979 22.9775 447.72 20.8229 449.322 17.9657L447.578 16.9875C446.055 19.7032 444.489 21.585 442.907 22.7183L444.071 24.3442ZM449.322 17.9662L455.377 7.18497L453.633 6.20565L447.578 16.9869L449.322 17.9662ZM455.38 7.17863C456.628 4.91747 458.211 3.9274 460.141 3.90619L460.119 1.90631C457.309 1.93719 455.141 3.47315 453.629 6.21199L455.38 7.17863ZM460.13 3.90625H469.153V1.90625H460.13V3.90625ZM469.153 3.90625C469.654 3.90625 469.844 4.01878 469.901 4.06898C469.933 4.09687 470.028 4.19143 470.028 4.54688H472.028C472.028 3.80857 471.811 3.08282 471.218 2.56383C470.65 2.06716 469.902 1.90625 469.153 1.90625V3.90625ZM470.028 4.54688C470.028 4.91439 469.887 5.46232 469.481 6.22616L471.247 7.16447C471.727 6.26164 472.028 5.37727 472.028 4.54688H470.028ZM469.489 6.21194L461.012 21.5635L462.763 22.5302L471.24 7.17868L469.489 6.21194ZM461.01 21.5673C459.826 23.7337 458.506 25.4946 457.058 26.8684L458.435 28.3191C460.061 26.7762 461.501 24.8392 462.765 22.5264L461.01 21.5673ZM457.052 26.8743C455.693 28.1872 453.882 29.143 451.572 29.7083L452.047 31.651C454.632 31.0185 456.78 29.9169 458.441 28.3132L457.052 26.8743ZM451.602 31.6579C453.065 31.9682 454.658 32.911 456.376 34.629L457.79 33.2148C455.914 31.339 453.992 30.1203 452.017 29.7015L451.602 31.6579ZM456.381 34.6341C458.154 36.3818 459.71 38.2798 461.051 40.3288L462.724 39.2337C461.305 37.0639 459.658 35.0557 457.785 33.2097L456.381 34.6341ZM461.041 40.3132L470.806 55.86L472.5 54.7962L462.734 39.2493L461.041 40.3132ZM470.79 55.8338C471.192 56.5189 471.317 56.9887 471.317 57.2812H473.317C473.317 56.4801 473 55.6478 472.516 54.8224L470.79 55.8338ZM499.069 46.5391V45.5391H498.069V46.5391H499.069ZM497.975 57.9453L497.268 57.2382L497.975 57.9453ZM485.436 57.9453L484.729 58.6524L484.735 58.6588L484.742 58.6652L485.436 57.9453ZM499.069 35.4844H498.069V36.4844H499.069V35.4844ZM523.287 33.2969L523.829 34.1378L523.836 34.1333L523.287 33.2969ZM523.287 16.2656L522.739 17.1021L522.746 17.1065L523.287 16.2656ZM499.069 14.0391V13.0391H498.069V14.0391H499.069ZM485.342 55.3281V6.69531H483.342V55.3281H485.342ZM485.342 6.69531C485.342 5.93785 485.594 5.31449 486.117 4.77226L484.677 3.38399C483.794 4.30009 483.342 5.42153 483.342 6.69531H485.342ZM486.117 4.77226C486.631 4.23913 487.23 3.98438 487.975 3.98438V1.98438C486.689 1.98438 485.569 2.45879 484.677 3.38399L486.117 4.77226ZM487.975 3.98438H517.78V1.98438H487.975V3.98438ZM517.78 3.98438C525.522 3.98438 531.143 5.77135 534.826 9.16868C538.495 12.5519 540.412 17.6915 540.412 24.7812H542.412C542.412 17.3398 540.392 11.5809 536.182 7.69851C531.988 3.83022 525.792 1.98438 517.78 1.98438V3.98438ZM540.412 24.7812C540.412 31.8575 538.495 36.9871 534.827 40.3639C531.143 43.7552 525.523 45.5391 517.78 45.5391V47.5391C525.792 47.5391 531.987 45.6967 536.182 41.8353C540.391 37.9595 542.412 32.2102 542.412 24.7812H540.412ZM517.78 45.5391H499.069V47.5391H517.78V45.5391ZM498.069 46.5391V55.3281H500.069V46.5391H498.069ZM498.069 55.3281C498.069 56.074 497.813 56.6933 497.268 57.2382L498.682 58.6524C499.596 57.7389 500.069 56.6135 500.069 55.3281H498.069ZM497.268 57.2382C496.757 57.7494 496.154 58 495.397 58V60C496.671 60 497.787 59.5475 498.682 58.6524L497.268 57.2382ZM495.397 58H488.053V60H495.397V58ZM488.053 58C487.296 58 486.672 57.7483 486.13 57.2255L484.742 58.6652C485.658 59.5485 486.779 60 488.053 60V58ZM486.143 57.2382C485.598 56.6933 485.342 56.074 485.342 55.3281H483.342C483.342 56.6135 483.815 57.7389 484.729 58.6524L486.143 57.2382ZM499.069 36.4844H513.327V34.4844H499.069V36.4844ZM513.327 36.4844C517.785 36.4844 521.33 35.7462 523.829 34.1377L522.746 32.456C520.714 33.7642 517.618 34.4844 513.327 34.4844V36.4844ZM523.836 34.1333C526.514 32.3786 527.686 29.1175 527.686 24.7812H525.686C525.686 28.8304 524.592 31.2464 522.74 32.4604L523.836 34.1333ZM527.686 24.7812C527.686 20.4238 526.516 17.1545 523.829 15.4248L522.746 17.1065C524.59 18.2934 525.686 20.7012 525.686 24.7812H527.686ZM523.836 15.4292C521.335 13.791 517.787 13.0391 513.327 13.0391V15.0391C517.616 15.0391 520.709 15.7715 522.74 17.1021L523.836 15.4292ZM513.327 13.0391H499.069V15.0391H513.327V13.0391ZM498.069 14.0391V35.4844H500.069V14.0391H498.069ZM606.719 53.2188L607.378 53.9704L607.379 53.9702L606.719 53.2188ZM559.844 53.2188L559.184 53.9702L559.186 53.972L559.844 53.2188ZM606.719 8.80469L606.059 9.55635L606.061 9.55795L606.719 8.80469ZM570.508 17.0469L569.746 16.3992L569.743 16.4029L570.508 17.0469ZM570.508 44.9766L569.743 45.6205L569.749 45.6274L570.508 44.9766ZM596.055 44.9766L596.817 45.6237L596.82 45.6205L596.055 44.9766ZM606.059 52.4671C600.997 56.9087 593.46 59.2109 583.281 59.2109V61.2109C593.727 61.2109 601.815 58.8517 607.378 53.9704L606.059 52.4671ZM583.281 59.2109C573.13 59.2109 565.591 56.9093 560.501 52.4655L559.186 53.972C564.774 58.8512 572.86 61.2109 583.281 61.2109V59.2109ZM560.504 52.4673C555.461 48.0395 552.836 40.9608 552.836 30.9922H550.836C550.836 41.284 553.55 49.023 559.184 53.9702L560.504 52.4673ZM552.836 30.9922C552.836 21.0231 555.461 13.9592 560.501 9.55795L559.186 8.05143C553.549 12.9731 550.836 20.7008 550.836 30.9922H552.836ZM560.501 9.55795C565.591 5.11418 573.13 2.8125 583.281 2.8125V0.8125C572.86 0.8125 564.774 3.17228 559.186 8.05143L560.501 9.55795ZM583.281 2.8125C593.46 2.8125 600.997 5.11471 606.059 9.55635L607.378 8.05302C601.815 3.17174 593.727 0.8125 583.281 0.8125V2.8125ZM606.061 9.55795C611.102 13.9592 613.727 21.0231 613.727 30.9922H615.727C615.727 20.7008 613.013 12.9731 607.376 8.05143L606.061 9.55795ZM613.727 30.9922C613.727 40.9608 611.102 48.0395 606.059 52.4673L607.379 53.9702C613.013 49.023 615.727 41.284 615.727 30.9922H613.727ZM596.82 16.4029C593.927 12.9664 589.327 11.3594 583.281 11.3594V13.3594C589.006 13.3594 592.922 14.8773 595.29 17.6908L596.82 16.4029ZM583.281 11.3594C577.259 11.3594 572.663 12.9677 569.746 16.3992L571.27 17.6945C573.665 14.8761 577.585 13.3594 583.281 13.3594V11.3594ZM569.743 16.4029C566.899 19.7811 565.562 24.7147 565.562 31.0312H567.562C567.562 24.9519 568.856 20.5627 571.273 17.6908L569.743 16.4029ZM565.562 31.0312C565.562 37.323 566.9 42.243 569.743 45.6205L571.273 44.3326C568.855 41.4601 567.562 37.0833 567.562 31.0312H565.562ZM569.749 45.6274C572.666 49.0312 577.261 50.625 583.281 50.625V48.625C577.583 48.625 573.662 47.1199 571.267 44.3258L569.749 45.6274ZM583.281 50.625C589.325 50.625 593.924 49.0324 596.817 45.6236L595.292 44.3295C592.925 47.1187 589.008 48.625 583.281 48.625V50.625ZM596.82 45.6205C599.662 42.243 601 37.323 601 31.0312H599C599 37.0833 597.707 41.4601 595.29 44.3326L596.82 45.6205ZM601 31.0312C601 24.7147 599.663 19.7811 596.82 16.4029L595.29 17.6908C597.707 20.5627 599 24.9519 599 31.0312H601ZM672.884 57.9453L672.356 58.7944L672.363 58.7986L672.37 58.8028L672.884 57.9453ZM670.15 55.3281L669.304 55.8617L669.308 55.8678L670.15 55.3281ZM663.275 44.4297L662.424 44.9552L662.429 44.9632L663.275 44.4297ZM658.314 38.4531L657.683 39.2293L657.691 39.2352L658.314 38.4531ZM643.9 36.4219V35.4219H642.9V36.4219H643.9ZM642.806 57.9844L643.5 58.7047L643.5 58.7042L642.806 57.9844ZM630.267 57.9062L629.548 58.6008L629.554 58.6072L629.56 58.6134L630.267 57.9062ZM642.806 4.03906L642.074 4.72048L642.081 4.72713L642.087 4.73366L642.806 4.03906ZM643.9 25.4062H642.9V26.4062H643.9V25.4062ZM658.314 23.5312L657.732 22.7183L657.726 22.7225L658.314 23.5312ZM663.275 17.4766L662.403 16.9869L662.403 16.9875L663.275 17.4766ZM669.33 6.69531L670.202 7.18499L670.205 7.17863L669.33 6.69531ZM674.955 2.90625V1.90619L674.944 1.90631L674.955 2.90625ZM685.189 6.69531L686.065 7.17868L686.068 7.17161L686.072 7.16447L685.189 6.69531ZM676.713 22.0469L675.837 21.5635L675.835 21.5673L676.713 22.0469ZM672.572 27.5938L671.883 26.8684L671.877 26.8743L672.572 27.5938ZM666.634 30.6797L666.397 29.7083L666.427 31.6579L666.634 30.6797ZM671.908 33.9219L671.201 34.629L671.206 34.6341L671.908 33.9219ZM676.713 39.7812L677.559 39.2493L677.554 39.2415L677.549 39.2337L676.713 39.7812ZM686.478 55.3281L687.341 54.8224L687.333 54.8092L687.325 54.7962L686.478 55.3281ZM686.142 57.2812C686.142 57.6522 686.041 57.7629 685.988 57.8069C685.904 57.878 685.671 58 685.111 58V60C685.905 60 686.687 59.8355 687.28 59.3337C687.905 58.8048 688.142 58.0561 688.142 57.2812H686.142ZM685.111 58H676.166V60H685.111V58ZM676.166 58C675.384 58 674.467 57.7289 673.399 57.0878L672.37 58.8028C673.645 59.568 674.917 60 676.166 60V58ZM673.413 57.0963C672.349 56.4343 671.552 55.6621 670.992 54.7885L669.308 55.8678C670.05 57.0254 671.076 57.998 672.356 58.7944L673.413 57.0963ZM670.996 54.7946L664.121 43.8961L662.429 44.9632L669.304 55.8617L670.996 54.7946ZM664.126 43.9042C662.45 41.1913 660.725 39.096 658.937 37.6711L657.691 39.2352C659.236 40.4665 660.819 42.3556 662.424 44.9552L664.126 43.9042ZM658.945 37.677C657.083 36.1645 654.849 35.4219 652.298 35.4219V37.4219C654.435 37.4219 656.212 38.0334 657.683 39.2292L658.945 37.677ZM652.298 35.4219H643.9V37.4219H652.298V35.4219ZM642.9 36.4219V55.4062H644.9V36.4219H642.9ZM642.9 55.4062C642.9 56.1512 642.645 56.7504 642.112 57.2645L643.5 58.7042C644.426 57.8121 644.9 56.6926 644.9 55.4062H642.9ZM642.113 57.2641C641.604 57.7538 640.997 58 640.228 58V60C641.491 60 642.602 59.5691 643.5 58.7047L642.113 57.2641ZM640.228 58H632.884V60H640.228V58ZM632.884 58C632.139 58 631.519 57.744 630.974 57.1991L629.56 58.6134C630.474 59.5268 631.599 60 632.884 60V58ZM630.987 57.2117C630.431 56.6359 630.173 55.997 630.173 55.25H628.173C628.173 56.5343 628.645 57.6662 629.548 58.6008L630.987 57.2117ZM630.173 55.25V6.69531H628.173V55.25H630.173ZM630.173 6.69531C630.173 5.94835 630.431 5.3094 630.987 4.73366L629.548 3.34447C628.645 4.27914 628.173 5.41102 628.173 6.69531H630.173ZM630.987 4.73366C631.534 4.16625 632.15 3.90625 632.884 3.90625V1.90625C631.587 1.90625 630.458 2.40146 629.548 3.34447L630.987 4.73366ZM632.884 3.90625H640.228V1.90625H632.884V3.90625ZM640.228 3.90625C640.961 3.90625 641.557 4.16477 642.074 4.72048L643.538 3.35764C642.649 2.40294 641.526 1.90625 640.228 1.90625V3.90625ZM642.087 4.73366C642.643 5.3094 642.9 5.94835 642.9 6.69531H644.9C644.9 5.41102 644.428 4.27914 643.526 3.34447L642.087 4.73366ZM642.9 6.69531V25.4062H644.9V6.69531H642.9ZM643.9 26.4062H652.298V24.4062H643.9V26.4062ZM652.298 26.4062C654.784 26.4062 656.999 25.7242 658.902 24.34L657.726 22.7225C656.192 23.8383 654.396 24.4062 652.298 24.4062V26.4062ZM658.896 24.3442C660.804 22.9775 662.545 20.8229 664.147 17.9657L662.403 16.9875C660.88 19.7032 659.314 21.585 657.732 22.7183L658.896 24.3442ZM664.147 17.9662L670.202 7.18497L668.458 6.20565L662.403 16.9869L664.147 17.9662ZM670.205 7.17863C671.453 4.91747 673.036 3.9274 674.966 3.90619L674.944 1.90631C672.134 1.93719 669.966 3.47315 668.454 6.21199L670.205 7.17863ZM674.955 3.90625H683.978V1.90625H674.955V3.90625ZM683.978 3.90625C684.479 3.90625 684.669 4.01878 684.726 4.06898C684.758 4.09687 684.853 4.19143 684.853 4.54688H686.853C686.853 3.80857 686.636 3.08282 686.043 2.56383C685.475 2.06716 684.727 1.90625 683.978 1.90625V3.90625ZM684.853 4.54688C684.853 4.91439 684.712 5.46232 684.306 6.22616L686.072 7.16447C686.552 6.26164 686.853 5.37727 686.853 4.54688H684.853ZM684.314 6.21194L675.837 21.5635L677.588 22.5302L686.065 7.17868L684.314 6.21194ZM675.835 21.5673C674.651 23.7337 673.331 25.4946 671.883 26.8684L673.26 28.3191C674.886 26.7762 676.326 24.8392 677.59 22.5264L675.835 21.5673ZM671.877 26.8743C670.518 28.1872 668.707 29.143 666.397 29.7083L666.872 31.651C669.457 31.0185 671.605 29.9169 673.266 28.3132L671.877 26.8743ZM666.427 31.6579C667.89 31.9682 669.483 32.911 671.201 34.629L672.615 33.2148C670.739 31.339 668.817 30.1203 666.842 29.7015L666.427 31.6579ZM671.206 34.6341C672.979 36.3818 674.535 38.2798 675.876 40.3288L677.549 39.2337C676.13 37.0639 674.483 35.0557 672.61 33.2097L671.206 34.6341ZM675.866 40.3132L685.631 55.86L687.325 54.7962L677.559 39.2493L675.866 40.3132ZM685.615 55.8338C686.017 56.5189 686.142 56.9887 686.142 57.2812H688.142C688.142 56.4801 687.825 55.6478 687.341 54.8224L685.615 55.8338ZM712.331 4.03906L711.624 4.74617L711.631 4.7526L711.637 4.75891L712.331 4.03906ZM713.425 45.7188H712.425V49.495L714.294 46.2137L713.425 45.7188ZM735.652 6.69531L734.79 6.18733L734.786 6.19383L734.783 6.20039L735.652 6.69531ZM755.066 57.9453L755.76 58.6652L755.766 58.6588L755.773 58.6524L755.066 57.9453ZM742.956 57.9453L742.236 58.6395L742.249 58.6525L742.262 58.6652L742.956 57.9453ZM741.902 19.0781H742.902V15.2606L741.03 18.5879L741.902 19.0781ZM721.511 55.3281L722.372 55.8361L722.378 55.8273L722.383 55.8184L721.511 55.3281ZM718.972 57.9453L719.513 58.7865L719.52 58.782L719.527 58.7774L718.972 57.9453ZM700.261 57.9453L699.554 58.6524L699.56 58.6588L699.567 58.6652L700.261 57.9453ZM700.167 55.3281V6.69531H698.167V55.3281H700.167ZM700.167 6.69531C700.167 5.87118 700.428 5.24699 700.929 4.74617L699.515 3.33195C698.609 4.23738 698.167 5.38402 698.167 6.69531H700.167ZM700.929 4.74617C701.43 4.24535 702.054 3.98438 702.878 3.98438V1.98438C701.567 1.98438 700.42 2.42653 699.515 3.33195L700.929 4.74617ZM702.878 3.98438H709.753V1.98438H702.878V3.98438ZM709.753 3.98438C710.51 3.98438 711.113 4.23503 711.624 4.74617L713.038 3.33195C712.143 2.43685 711.028 1.98438 709.753 1.98438V3.98438ZM711.637 4.75891C712.17 5.27299 712.425 5.87227 712.425 6.61719H714.425C714.425 5.33085 713.951 4.21138 713.025 3.31922L711.637 4.75891ZM712.425 6.61719V45.7188H714.425V6.61719H712.425ZM714.294 46.2137L736.521 7.19023L734.783 6.20039L712.556 45.2238L714.294 46.2137ZM736.513 7.2033C737.034 6.32024 737.752 5.55107 738.686 4.89736L737.539 3.25889C736.39 4.06352 735.467 5.03913 734.79 6.18733L736.513 7.2033ZM738.686 4.89736C739.63 4.23664 740.395 3.98438 741.003 3.98438V1.98438C739.841 1.98438 738.678 2.46127 737.539 3.25889L738.686 4.89736ZM741.003 3.98438H752.527V1.98438H741.003V3.98438ZM752.527 3.98438C753.271 3.98438 753.871 4.23913 754.385 4.77226L755.825 3.38399C754.932 2.45879 753.813 1.98438 752.527 1.98438V3.98438ZM754.385 4.77226C754.908 5.31449 755.159 5.93785 755.159 6.69531H757.159C757.159 5.42153 756.708 4.30009 755.825 3.38399L754.385 4.77226ZM755.159 6.69531V55.3281H757.159V6.69531H755.159ZM755.159 55.3281C755.159 56.074 754.903 56.6933 754.359 57.2382L755.773 58.6524C756.686 57.7389 757.159 56.6135 757.159 55.3281H755.159ZM754.371 57.2255C753.829 57.7483 753.206 58 752.448 58V60C753.722 60 754.844 59.5485 755.76 58.6652L754.371 57.2255ZM752.448 58H745.573V60H752.448V58ZM745.573 58C744.816 58 744.193 57.7483 743.65 57.2255L742.262 58.6652C743.178 59.5485 744.3 60 745.573 60V58ZM743.676 57.2512C743.153 56.7089 742.902 56.0856 742.902 55.3281H740.902C740.902 56.6019 741.353 57.7234 742.236 58.6395L743.676 57.2512ZM742.902 55.3281V19.0781H740.902V55.3281H742.902ZM741.03 18.5879L720.639 54.8379L722.383 55.8184L742.773 19.5684L741.03 18.5879ZM720.65 54.8201C720.135 55.6918 719.4 56.458 718.417 57.1133L719.527 58.7774C720.731 57.9743 721.688 56.9957 722.372 55.8361L720.65 54.8201ZM718.431 57.1041C717.454 57.7323 716.585 58 715.808 58V60C717.062 60 718.302 59.5645 719.513 58.7865L718.431 57.1041ZM715.808 58H702.878V60H715.808V58ZM702.878 58C702.121 58 701.497 57.7483 700.955 57.2255L699.567 58.6652C700.483 59.5485 701.604 60 702.878 60V58ZM700.968 57.2382C700.423 56.6933 700.167 56.074 700.167 55.3281H698.167C698.167 56.6135 698.64 57.7389 699.554 58.6524L700.968 57.2382ZM773.067 6.69531L774.067 6.66001L774.066 6.65205L774.066 6.6441L773.067 6.69531ZM774.083 4.07812L773.388 3.35872L773.382 3.36482L773.376 3.37102L774.083 4.07812ZM787.755 4.07812L787.048 4.78523L787.054 4.79143L787.06 4.79753L787.755 4.07812ZM788.809 6.69531L787.811 6.6441L787.81 6.65266L787.81 6.66123L788.809 6.69531ZM787.716 38.7656L788.714 38.8168L788.715 38.8083L788.715 38.7997L787.716 38.7656ZM786.583 41.3438L787.276 42.0641L787.283 42.0575L787.29 42.0509L786.583 41.3438ZM775.294 41.3438L774.573 42.0374L774.587 42.051L774.6 42.0641L775.294 41.3438ZM774.2 38.7656L773.201 38.8009L773.201 38.8089L773.201 38.8168L774.2 38.7656ZM787.286 57.9844L786.569 57.2873L786.564 57.2925L786.559 57.2978L787.286 57.9844ZM774.63 57.9844L773.903 58.671L773.908 58.6763L773.913 58.6814L774.63 57.9844ZM774.066 6.6441C774.029 5.91561 774.258 5.31747 774.79 4.78523L773.376 3.37102C772.45 4.29711 772.002 5.44377 772.069 6.74653L774.066 6.6441ZM774.777 4.79753C775.353 4.24163 775.992 3.98438 776.739 3.98438V1.98438C775.455 1.98438 774.323 2.45628 773.388 3.35872L774.777 4.79753ZM776.739 3.98438H785.138V1.98438H776.739V3.98438ZM785.138 3.98438C785.883 3.98438 786.503 4.24037 787.048 4.78523L788.462 3.37102C787.548 2.45754 786.423 1.98438 785.138 1.98438V3.98438ZM787.06 4.79753C787.615 5.33327 787.847 5.92772 787.811 6.6441L789.808 6.74653C789.875 5.43166 789.405 4.28131 788.449 3.35872L787.06 4.79753ZM787.81 6.66123L786.716 38.7315L788.715 38.7997L789.809 6.7294L787.81 6.66123ZM786.717 38.7144C786.677 39.4891 786.399 40.1129 785.876 40.6366L787.29 42.0509C788.172 41.1684 788.65 40.0734 788.714 38.8168L786.717 38.7144ZM785.889 40.6234C785.375 41.1183 784.779 41.3594 784.044 41.3594V43.3594C785.288 43.3594 786.384 42.9233 787.276 42.0641L785.889 40.6234ZM784.044 41.3594H777.872V43.3594H784.044V41.3594ZM777.872 41.3594C777.103 41.3594 776.496 41.1132 775.987 40.6234L774.6 42.0641C775.498 42.9285 776.609 43.3594 777.872 43.3594V41.3594ZM776.014 40.6501C775.512 40.1284 775.239 39.5003 775.199 38.7144L773.201 38.8168C773.265 40.0622 773.722 41.1529 774.573 42.0374L776.014 40.6501ZM775.199 38.7303L774.067 6.66001L772.068 6.73061L773.201 38.8009L775.199 38.7303ZM783.38 47.3438C784.982 47.3438 786 47.7462 786.625 48.3764C787.252 49.0079 787.653 50.0377 787.653 51.6562H789.653C789.653 49.7331 789.175 48.1067 788.044 46.9674C786.912 45.8267 785.294 45.3438 783.38 45.3438V47.3438ZM787.653 51.6562V54.1172H789.653V51.6562H787.653ZM787.653 54.1172C787.653 55.5671 787.256 56.5811 786.569 57.2873L788.003 58.6814C789.139 57.5127 789.653 55.9485 789.653 54.1172H787.653ZM786.559 57.2978C785.919 57.9751 784.919 58.3906 783.38 58.3906V60.3906C785.278 60.3906 786.882 59.8687 788.013 58.671L786.559 57.2978ZM783.38 58.3906H778.575V60.3906H783.38V58.3906ZM778.575 58.3906C777.038 58.3906 776.016 57.9757 775.347 57.2873L773.913 58.6814C775.066 59.8681 776.675 60.3906 778.575 60.3906V58.3906ZM775.357 57.2978C774.691 56.5925 774.302 55.5748 774.302 54.1172H772.302C772.302 55.9408 772.798 57.5012 773.903 58.671L775.357 57.2978ZM774.302 54.1172V51.6562H772.302V54.1172H774.302ZM774.302 51.6562C774.302 50.1114 774.708 49.086 775.376 48.418L773.962 47.0038C772.807 48.1588 772.302 49.7636 772.302 51.6562H774.302ZM775.376 48.418C776.047 47.7474 777.061 47.3438 778.575 47.3438V45.3438C776.703 45.3438 775.114 45.8516 773.962 47.0038L775.376 48.418ZM778.575 47.3438H783.38V45.3438H778.575V47.3438Z" fill="#FDBD13" fill-opacity="0.5"/>
</svg>
